<?xml version="1.0" standalone="no"?>
<!DOCTYPE svg PUBLIC "-//W3C//DTD SVG 20010904//EN"
 "http://www.w3.org/TR/2001/REC-SVG-20010904/DTD/svg10.dtd">
<svg version="1.0" xmlns="http://www.w3.org/2000/svg"
 width="2000.000000pt" height="2000.000000pt" viewBox="0 0 2000.000000 2000.000000"
 preserveAspectRatio="xMidYMid meet">

<g transform="translate(0.000000,2000.000000) scale(0.100000,-0.100000)"
fill="#000000" stroke="none">
<path d="M9765 17865 c-227 -42 -400 -116 -576 -247 -309 -229 -509 -609 -509
-966 0 -396 263 -794 616 -933 l79 -31 209 -496 c302 -719 294 -701 321 -708
13 -3 32 -1 42 4 14 8 80 179 233 600 l215 589 75 22 c462 136 792 633 740
1116 -57 533 -456 957 -987 1050 -105 18 -360 18 -458 0z m248 -710 c207 -54
337 -220 337 -431 0 -284 -290 -499 -559 -415 -85 26 -140 61 -199 126 -94
102 -137 236 -114 355 49 263 291 429 535 365z"/>
<path d="M15860 17180 c-642 -49 -1265 -454 -1602 -1040 -276 -480 -347 -1050
-191 -1535 68 -213 155 -377 394 -742 88 -133 184 -284 215 -335 71 -116 178
-332 200 -403 l17 -53 -31 -94 c-42 -129 -49 -183 -27 -208 10 -11 29 -20 42
-20 26 0 26 2 13 -100 -11 -85 -60 -552 -60 -573 0 -8 -13 -17 -29 -20 -45 -9
-59 -31 -66 -103 -14 -126 14 -274 68 -367 35 -59 108 -124 174 -154 48 -22
65 -25 137 -21 68 3 91 10 143 37 106 57 183 156 253 328 31 76 32 83 18 105
-9 13 -34 30 -57 36 l-40 13 43 102 c24 56 83 196 131 310 l88 209 32 -6 c18
-4 37 -1 47 6 9 7 36 76 61 153 42 129 50 145 104 208 137 161 332 317 749
598 446 301 587 410 756 588 257 270 411 593 464 969 24 176 15 484 -20 648
-77 364 -241 663 -502 914 -333 321 -761 511 -1239 550 -138 11 -142 11 -285
0z m223 -108 l39 -7 -62 -44 c-154 -108 -334 -284 -467 -457 l-32 -40 -263 2
c-252 3 -436 -8 -573 -35 -27 -5 -52 -7 -55 -4 -5 5 53 58 165 152 285 238
668 398 1025 430 123 11 176 11 223 3z m324 -44 c103 -21 103 -21 146 -72 158
-186 254 -399 313 -695 6 -30 4 -33 -12 -27 -11 4 -84 28 -164 52 -303 95
-620 167 -904 207 l-158 22 47 60 c119 149 304 321 464 429 95 65 77 63 268
24z m352 -114 c204 -88 381 -206 545 -364 151 -146 272 -311 349 -480 32 -69
108 -283 102 -288 -2 -2 -29 17 -62 42 -148 114 -374 235 -618 330 l-140 54
-23 113 c-43 212 -119 397 -226 557 -31 45 -50 82 -44 82 7 0 60 -21 117 -46z
m-1272 -450 l30 -6 -49 -81 c-283 -470 -363 -982 -288 -1857 4 -52 6 -97 4
-100 -13 -13 -524 172 -804 292 -282 120 -253 99 -267 193 -6 44 -12 103 -12
131 -1 49 1 52 42 80 70 47 78 55 66 70 -9 11 -17 11 -43 -2 -17 -9 -39 -24
-49 -33 -18 -15 -19 -14 -15 14 4 37 66 86 148 116 56 20 74 39 50 54 -15 9
-100 -21 -154 -55 -46 -30 -46 -30 -46 -7 0 17 14 32 55 58 32 20 55 41 55 52
0 23 -25 22 -67 -4 l-34 -21 7 44 c48 329 195 661 412 929 l62 77 87 16 c79
14 195 30 293 39 62 7 487 7 517 1z m338 -35 c257 -37 565 -110 878 -208 88
-27 163 -53 169 -59 5 -5 12 -67 15 -138 9 -213 -25 -495 -97 -789 -90 -371
-192 -623 -387 -953 -73 -124 -86 -142 -106 -137 -12 2 -103 20 -203 39 -227
45 -428 92 -661 157 l-183 51 -5 32 c-26 164 -42 746 -26 940 21 251 68 471
141 660 41 106 129 280 185 366 l44 70 48 -6 c26 -3 111 -14 188 -25z m1252
-339 c246 -95 524 -254 656 -372 41 -37 49 -51 57 -98 14 -80 25 -262 22 -362
l-3 -88 -32 0 c-18 0 -38 -5 -44 -11 -20 -20 -3 -39 34 -39 30 0 34 -3 31 -22
-2 -15 -9 -21 -18 -18 -8 2 -37 4 -65 5 -38 0 -50 -4 -50 -15 0 -9 11 -16 30
-18 57 -5 85 -22 85 -52 0 -14 -3 -29 -6 -32 -3 -3 -31 9 -62 28 -31 19 -61
33 -67 31 -25 -9 -6 -39 44 -69 53 -32 81 -61 69 -73 -3 -3 -22 4 -42 16 -35
20 -66 20 -66 0 0 -5 19 -22 42 -38 45 -31 52 -41 39 -61 -6 -11 -16 -8 -47
13 -38 26 -84 30 -91 9 -2 -7 16 -21 40 -33 82 -40 84 -45 38 -150 -82 -188
-177 -326 -341 -494 -103 -105 -106 -107 -150 -107 -92 0 -510 45 -695 75 -49
8 -93 15 -97 15 -4 0 27 57 69 128 144 243 230 431 312 685 120 371 194 837
176 1100 -4 53 -4 97 -1 97 3 0 63 -22 133 -50z m-2752 -1418 c213 -92 461
-187 675 -258 96 -31 180 -63 186 -71 6 -7 14 -66 18 -131 4 -64 9 -146 11
-182 20 -310 12 -587 -26 -819 -11 -69 -21 -126 -22 -127 -4 -5 -161 36 -167
43 -4 4 -17 35 -30 68 -67 174 -160 337 -390 690 -234 357 -300 475 -370 651
-42 106 -72 217 -57 211 7 -3 84 -37 172 -75z m1095 -387 c215 -61 410 -107
652 -156 111 -22 204 -41 206 -43 2 -2 -38 -69 -89 -147 -239 -370 -376 -631
-450 -849 -23 -69 -43 -126 -44 -127 -1 -3 -418 92 -456 103 -14 4 -15 11 -7
47 28 125 40 263 45 510 5 240 -7 599 -23 680 -3 15 -3 27 0 27 3 0 78 -20
166 -45z m1150 -240 c217 -29 461 -55 525 -55 25 0 45 -4 45 -9 0 -16 -197
-160 -483 -353 -433 -292 -632 -448 -788 -620 -45 -50 -68 -68 -86 -68 -23 0
-25 3 -20 33 19 117 167 433 324 692 189 311 261 417 281 411 9 -3 100 -17
202 -31z m-1311 -1099 c129 -30 237 -58 241 -63 4 -4 15 -33 25 -63 21 -66 31
-78 47 -62 9 9 8 23 -4 62 -15 48 -15 50 2 50 15 0 24 -16 40 -72 24 -81 43
-109 61 -91 8 8 6 28 -10 74 -11 35 -21 66 -21 70 0 13 105 -18 108 -32 5 -26
-45 -154 -59 -152 -63 9 -374 84 -499 121 -85 25 -177 50 -203 56 -54 12 -54
10 -16 112 16 42 25 54 37 50 10 -3 122 -30 251 -60z m-121 -260 c68 -20 130
-36 138 -36 8 0 14 -6 14 -13 0 -12 -153 -585 -164 -612 -3 -8 -39 -5 -121 9
l-118 21 6 90 c7 102 56 564 62 582 3 8 13 9 32 4 15 -5 84 -25 151 -45z m366
-92 c69 -15 126 -32 126 -37 0 -9 -247 -597 -253 -604 -4 -3 -187 43 -193 49
-2 3 70 274 157 591 7 25 15 37 23 34 8 -3 70 -18 140 -33z m-381 -695 c110
-24 269 -69 279 -78 3 -3 -4 -26 -17 -51 l-23 -45 -13 28 c-12 27 -33 35 -44
17 -3 -5 3 -30 14 -54 15 -35 17 -47 7 -55 -9 -8 -20 3 -41 39 -16 28 -35 50
-42 50 -26 0 -23 -23 10 -80 33 -55 34 -59 18 -74 -16 -15 -19 -13 -34 19 -16
34 -39 45 -52 25 -3 -5 3 -27 14 -49 17 -32 18 -40 6 -44 -17 -7 -25 3 -59 71
-25 49 -47 65 -61 42 -4 -6 10 -40 30 -75 l36 -65 -51 0 c-30 0 -66 8 -88 19
-44 23 -103 83 -127 129 -35 71 -58 245 -34 269 11 11 116 -3 272 -38z"/>
<path d="M17228 16453 c-25 -6 -23 -43 2 -43 11 0 20 -7 20 -15 0 -8 9 -15 21
-15 16 0 20 5 17 26 -3 30 -34 53 -60 47z"/>
<path d="M17220 16315 c0 -17 46 -39 67 -31 18 7 16 33 -3 40 -30 11 -64 7
-64 -9z"/>
<path d="M14273 15473 c-16 -6 -17 -39 -2 -49 16 -9 43 21 36 40 -7 16 -13 18
-34 9z"/>
<path d="M14243 15225 c-8 -22 16 -36 40 -24 23 13 17 33 -11 37 -14 2 -25 -3
-29 -13z"/>
<path d="M16210 15055 c0 -9 16 -23 36 -32 31 -15 36 -15 45 -3 6 11 3 20 -12
33 -26 21 -69 23 -69 2z"/>
<path d="M16120 14972 c0 -20 83 -68 99 -57 17 10 -4 42 -39 60 -38 20 -60 19
-60 -3z"/>
<path d="M17452 15177 c-17 -20 23 -56 41 -38 8 8 9 16 1 28 -14 23 -29 26
-42 10z"/>
<path d="M17592 14923 c2 -10 10 -18 18 -18 8 0 16 8 18 18 2 12 -3 17 -18 17
-15 0 -20 -5 -18 -17z"/>
<path d="M17305 14850 c-8 -13 24 -60 41 -60 23 0 28 29 9 50 -20 22 -40 26
-50 10z"/>
<path d="M17219 14674 c-11 -14 -10 -18 6 -31 24 -17 64 -28 72 -20 11 11 -6
36 -35 51 -27 14 -31 14 -43 0z"/>
<path d="M17155 14530 c-9 -14 9 -35 51 -61 35 -21 64 -20 64 3 0 13 -81 68
-100 68 -5 0 -12 -5 -15 -10z"/>
<path d="M14394 14297 c-10 -26 5 -37 52 -37 37 0 44 3 44 20 0 14 -7 20 -22
20 -13 0 -33 3 -45 6 -16 4 -25 1 -29 -9z"/>
<path d="M14483 14173 c-15 -6 -17 -29 -3 -38 18 -11 60 7 60 26 0 19 -27 25
-57 12z"/>
<path d="M14568 14093 c-20 -3 -28 -10 -28 -24 0 -15 7 -19 34 -19 47 0 66 9
66 31 0 19 -11 21 -72 12z"/>
<path d="M16275 13589 c-8 -13 33 -59 52 -59 25 0 26 29 2 50 -27 22 -45 25
-54 9z"/>
<path d="M16210 13532 c0 -20 59 -82 78 -82 23 0 12 36 -21 68 -37 36 -57 41
-57 14z"/>
<path d="M15144 11705 c-8 -21 3 -45 20 -45 22 0 28 17 16 40 -13 24 -28 26
-36 5z"/>
<path d="M13499 16959 c-8 -17 -8 -27 2 -46 20 -38 46 -47 75 -28 30 20 31 45
1 73 -30 28 -63 28 -78 1z"/>
<path d="M5241 16869 c-41 -44 -400 -633 -626 -1026 l-99 -172 -41 -6 c-22 -3
-364 -32 -760 -65 -396 -33 -730 -65 -742 -70 -18 -7 -23 -18 -23 -43 0 -32
20 -53 257 -278 480 -456 977 -994 1406 -1521 157 -193 419 -533 436 -565 21
-41 38 -43 216 -17 262 36 853 110 1235 153 190 22 352 42 361 46 10 4 41 75
82 188 105 291 224 567 355 825 37 71 45 82 65 78 12 -3 67 -8 122 -11 173
-10 967 -75 1299 -105 391 -37 400 -37 420 -8 9 12 16 27 16 32 0 5 -136 147
-303 315 -278 281 -393 399 -672 691 -238 249 -732 794 -1024 1130 -79 91
-149 171 -156 178 -7 8 -111 26 -266 47 -386 52 -781 110 -1124 166 -421 68
-407 67 -434 38z m210 -234 c68 -80 125 -150 127 -155 2 -5 -48 -82 -111 -172
-194 -277 -371 -549 -546 -835 -35 -57 -66 -103 -69 -103 -4 1 -61 52 -127
115 l-120 114 29 53 c74 134 353 605 481 813 190 309 194 315 203 315 5 0 64
-65 133 -145z m410 55 c210 -33 547 -83 748 -110 201 -28 371 -51 377 -53 6
-1 75 -76 154 -167 494 -567 1041 -1157 1590 -1713 l274 -278 -59 6 c-33 3
-89 9 -125 13 l-65 7 3 38 c3 33 1 38 -14 35 -10 -2 -21 -17 -26 -36 -6 -23
-14 -32 -29 -32 -15 0 -19 5 -15 18 2 9 10 36 17 59 6 23 9 50 5 60 -7 17 -9
16 -26 -5 -10 -12 -21 -39 -25 -60 -12 -71 11 -69 -347 -39 -178 15 -474 38
-658 52 -223 17 -338 29 -346 38 -72 81 -165 199 -160 205 13 12 700 -41 1131
-88 99 -11 191 -21 205 -23 55 -5 29 31 -117 160 -251 222 -538 524 -902 948
-90 105 -251 285 -357 401 l-194 211 -148 26 c-307 55 -673 101 -1053 132
l-76 6 -107 124 c-58 69 -106 127 -106 131 0 3 15 3 34 0 19 -4 206 -34 417
-66z m114 -266 c285 -28 870 -114 901 -132 6 -4 36 -34 65 -67 30 -33 108
-118 174 -190 66 -71 204 -227 305 -345 362 -420 680 -754 893 -940 47 -41 85
-76 83 -77 -3 -3 -405 38 -424 43 -11 3 -12 18 -7 64 6 56 6 60 -13 60 -22 0
-42 -43 -42 -92 0 -29 -1 -30 -37 -24 -21 3 -99 10 -173 16 -74 6 -155 12
-180 15 -25 2 -103 7 -175 11 -71 4 -139 8 -150 9 -11 1 -41 3 -66 4 l-46 1
-119 142 c-218 262 -715 849 -1006 1191 l-288 338 77 -6 c43 -3 146 -13 228
-21z m-159 -216 c260 -305 813 -959 1033 -1221 l173 -207 -120 -183 c-151
-230 -250 -402 -367 -639 l-93 -186 -22 23 -21 23 27 68 c15 38 42 102 61 143
38 85 40 101 14 101 -18 0 -55 -72 -116 -227 -18 -45 -24 -50 -42 -32 -12 12
-5 47 21 97 9 18 14 37 11 42 -14 22 -37 7 -56 -36 -17 -37 -23 -43 -35 -33
-16 13 -19 45 -4 54 16 10 12 35 -6 42 -10 4 -23 -2 -33 -15 -16 -21 -20 -17
-218 191 -185 194 -585 594 -891 891 l-122 119 20 34 c25 43 25 53 0 53 -12 0
-28 -13 -39 -30 -15 -25 -20 -28 -30 -17 -9 11 3 34 54 111 36 53 65 100 65
105 0 5 -7 11 -15 14 -16 7 -50 -33 -109 -126 -31 -48 -40 -56 -52 -46 -17 14
-17 15 154 289 156 250 545 830 557 830 1 0 92 -105 201 -232z m-1116 -759
c66 -62 119 -113 117 -115 -2 -2 -104 -15 -228 -29 -548 -64 -724 -89 -727
-106 -2 -9 109 -127 281 -300 433 -434 815 -887 1102 -1307 40 -60 53 -72 70
-67 133 39 1070 184 1120 173 8 -2 76 -70 150 -153 l135 -150 -72 -8 c-261
-28 -895 -105 -1177 -143 -184 -24 -338 -41 -341 -37 -4 5 -51 67 -105 138
-505 664 -1150 1388 -1704 1910 -158 150 -186 181 -168 184 37 6 1329 118
1379 120 46 1 48 0 168 -110z m392 -373 c287 -275 892 -886 1126 -1136 l182
-195 -52 -7 c-29 -4 -125 -16 -213 -28 -194 -25 -479 -71 -673 -107 -163 -31
-144 -37 -217 66 l-39 54 52 -7 c43 -6 53 -4 59 9 10 27 -15 40 -79 42 l-61 1
-124 164 c-277 365 -550 676 -896 1021 -182 181 -223 227 -205 228 13 0 32 2
43 4 11 2 133 18 270 35 138 17 318 39 400 49 83 10 162 19 177 20 22 1 67
-38 250 -213z m2054 -443 c49 -59 95 -114 102 -124 10 -15 6 -30 -29 -96 -120
-230 -255 -539 -365 -838 -34 -93 -67 -170 -72 -170 -14 0 -301 317 -302 333
0 17 167 350 248 492 97 172 314 510 326 510 2 0 43 -48 92 -107z"/>
<path d="M7133 15574 c-7 -3 -13 -15 -13 -25 0 -17 6 -20 33 -17 24 2 32 8 32
23 0 20 -27 29 -52 19z"/>
<path d="M7150 15425 c-18 -21 -4 -31 53 -39 39 -5 49 -3 54 11 14 36 -80 61
-107 28z"/>
<path d="M7156 15327 c-28 -20 -11 -37 37 -37 23 -1 60 -7 82 -15 54 -20 65
-19 65 6 0 39 -145 76 -184 46z"/>
<path d="M7952 14928 c-16 -16 -15 -35 2 -41 17 -7 51 28 41 42 -8 14 -28 14
-43 -1z"/>
<path d="M5077 15403 c-4 -3 -7 -15 -7 -25 0 -28 34 -19 38 10 3 21 -16 31
-31 15z"/>
<path d="M6366 14101 c-17 -19 -12 -51 8 -51 16 0 40 45 32 59 -10 16 -20 14
-40 -8z"/>
<path d="M5357 13744 c-4 -4 -7 -16 -7 -26 0 -16 6 -19 33 -16 24 2 32 8 32
23 0 14 -8 21 -25 23 -14 2 -29 0 -33 -4z"/>
<path d="M13648 16809 c-27 -15 -22 -50 11 -87 32 -35 42 -38 72 -22 26 15 24
47 -7 87 -26 34 -46 40 -76 22z"/>
<path d="M12976 16704 c-19 -18 -21 -45 -4 -62 18 -18 94 -15 112 4 35 34 6
74 -54 74 -22 0 -45 -7 -54 -16z"/>
<path d="M13207 16705 c-20 -19 -22 -49 -4 -62 6 -6 29 -13 50 -16 30 -5 42
-2 58 14 10 10 19 23 19 27 0 40 -92 68 -123 37z"/>
<path d="M12745 16680 c-15 -17 -16 -24 -7 -45 10 -21 18 -25 56 -25 63 0 99
43 64 78 -20 20 -92 15 -113 -8z"/>
<path d="M13432 16678 c-19 -19 -14 -56 8 -68 12 -6 40 -10 63 -8 38 3 42 6
45 33 3 19 -2 33 -14 42 -22 16 -86 17 -102 1z"/>
<path d="M12560 16658 c-48 -14 -63 -42 -41 -77 11 -17 71 -17 101 -1 27 14
27 66 1 80 -11 5 -21 10 -23 9 -2 0 -19 -5 -38 -11z"/>
<path d="M13660 16633 c-45 -32 5 -94 63 -79 21 5 27 12 27 35 0 46 -51 71
-90 44z"/>
<path d="M13797 16622 c-21 -23 -22 -75 -2 -92 30 -25 95 9 95 50 0 16 -46 60
-63 60 -8 0 -21 -8 -30 -18z"/>
<path d="M12320 16587 c-18 -9 -25 -21 -25 -41 0 -42 25 -54 77 -36 40 14 43
18 43 50 0 33 -2 35 -35 38 -19 1 -46 -4 -60 -11z"/>
<path d="M13560 16512 c-63 -31 -49 -99 18 -88 48 7 82 32 82 59 0 48 -39 59
-100 29z"/>
<path d="M12113 16500 c-41 -25 -45 -65 -9 -81 33 -15 106 22 106 54 0 49 -43
60 -97 27z"/>
<path d="M13322 16414 c-33 -23 -30 -72 4 -80 56 -14 103 38 68 77 -21 23 -42
24 -72 3z"/>
<path d="M11913 16398 c-25 -15 -33 -27 -33 -49 0 -43 30 -55 79 -29 47 24 60
53 35 81 -21 24 -40 23 -81 -3z"/>
<path d="M11718 16269 c-28 -20 -34 -42 -22 -73 9 -22 51 -20 86 5 23 17 29
27 26 53 -3 26 -7 31 -33 33 -18 2 -41 -5 -57 -18z"/>
<path d="M11541 16121 c-34 -31 -37 -42 -21 -72 16 -28 57 -24 91 10 33 33 36
52 13 75 -23 24 -48 20 -83 -13z"/>
<path d="M11396 15974 c-36 -36 -48 -62 -37 -82 16 -30 42 -35 71 -14 32 24
48 67 34 90 -15 23 -48 26 -68 6z"/>
<path d="M11236 15779 c-40 -47 -30 -89 20 -89 25 0 74 52 74 79 0 48 -57 54
-94 10z"/>
<path d="M11111 15591 c-30 -41 -27 -78 5 -93 24 -11 29 -9 50 15 30 35 40 73
24 92 -20 24 -57 18 -79 -14z"/>
<path d="M11006 15398 c-36 -56 -24 -108 25 -108 22 0 59 54 59 86 0 45 -59
61 -84 22z"/>
<path d="M12205 15264 c-167 -20 -294 -54 -400 -106 -193 -97 -340 -263 -396
-448 -27 -86 -31 -244 -10 -319 7 -23 11 -45 8 -47 -2 -2 -19 1 -38 6 -62 18
-201 23 -279 10 -155 -26 -285 -94 -388 -204 l-58 -62 -119 14 c-183 22 -698
21 -890 -2 -858 -100 -1576 -399 -2247 -934 -236 -188 -547 -513 -744 -776
l-59 -79 -8 49 c-41 255 -230 452 -505 526 -108 28 -296 28 -405 -1 -186 -49
-355 -149 -503 -296 -100 -99 -158 -178 -210 -288 -30 -63 -39 -96 -60 -214
-4 -20 -7 -19 -81 23 -104 59 -208 101 -318 129 -388 99 -796 26 -1095 -195
-316 -235 -332 -580 -36 -759 118 -71 295 -115 521 -130 337 -23 685 40 990
178 37 17 72 31 76 31 5 0 9 -13 9 -30 0 -52 47 -179 91 -246 86 -133 219
-227 394 -280 80 -24 111 -27 274 -32 l183 -4 -6 -32 c-158 -759 -113 -1541
130 -2265 175 -521 450 -1001 813 -1424 l101 -117 -39 -20 c-100 -50 -217
-168 -286 -285 l-38 -66 -41 8 c-23 4 -99 8 -171 7 -113 0 -141 -4 -210 -27
-211 -70 -364 -223 -431 -432 -35 -109 -43 -262 -20 -369 65 -290 332 -513
633 -528 l51 -3 27 -55 c65 -132 187 -265 312 -339 81 -48 219 -96 323 -112
104 -16 304 -6 410 21 284 71 545 279 701 558 16 28 29 41 39 38 8 -3 49 -17
90 -32 288 -102 640 38 806 321 14 25 29 45 32 45 4 0 65 -11 136 -25 302 -59
422 -70 816 -70 295 0 392 4 505 18 393 51 766 147 1085 277 69 29 132 54 141
57 9 2 59 -16 110 -41 317 -154 682 -135 1134 59 l88 38 56 -30 c60 -33 120
-56 189 -73 40 -10 42 -12 42 -49 0 -55 35 -182 69 -254 76 -159 232 -310 397
-383 148 -65 368 -102 534 -89 614 47 1084 377 1211 850 17 61 22 110 23 210
1 157 -14 220 -81 355 -79 158 -237 299 -393 349 l-35 11 2 87 2 88 74 75
c125 127 187 283 187 470 0 168 -49 305 -156 434 -72 87 -149 147 -259 201
-136 68 -194 80 -365 79 -127 -1 -156 -4 -233 -27 -147 -45 -265 -111 -386
-216 -36 -31 -62 -49 -59 -41 4 8 27 60 51 115 176 395 293 854 338 1325 16
162 16 601 0 755 -57 566 -196 1055 -433 1529 -70 140 -162 303 -225 396 l-43
65 112 12 c364 41 630 222 725 495 47 134 33 320 -34 452 -114 225 -316 373
-588 431 -44 10 -150 20 -236 24 l-156 6 -36 47 c-36 47 -37 58 -7 58 38 0
158 71 207 123 94 99 133 204 133 357 0 111 -17 186 -65 287 -45 97 -84 152
-174 247 -224 235 -554 413 -891 480 -137 28 -336 41 -435 30z m240 -114 c199
-19 386 -71 561 -157 84 -40 94 -48 88 -67 -17 -53 4 -74 31 -32 17 25 18 26
46 9 35 -21 36 -24 3 -62 -25 -30 -25 -51 1 -51 7 0 25 14 39 31 16 19 32 29
41 25 22 -8 19 -18 -20 -63 -19 -23 -35 -48 -35 -57 0 -29 28 -17 69 30 l40
46 29 -21 c16 -11 70 -63 120 -115 71 -75 100 -115 135 -185 55 -109 71 -179
65 -291 -3 -66 -11 -99 -32 -147 -44 -96 -54 -97 -52 -6 1 63 -2 78 -14 78
-11 0 -17 -17 -22 -66 -7 -72 -34 -145 -63 -169 -17 -14 -17 -13 -9 20 5 19 9
73 9 120 0 76 -2 85 -19 85 -16 0 -18 -10 -20 -90 -2 -101 -29 -175 -66 -175
-16 0 -17 4 -9 32 20 70 2 214 -28 225 -27 10 -34 -12 -18 -56 27 -76 11 -206
-24 -199 -13 3 -16 17 -16 65 0 34 -4 65 -8 70 -14 13 -37 -28 -37 -65 l0 -34
-32 21 c-18 12 -64 38 -101 57 -73 37 -99 38 -118 2 -20 -37 -3 -63 63 -98
171 -91 289 -198 345 -315 41 -88 53 -159 40 -254 -11 -81 -2 -101 44 -101 30
0 59 31 59 63 0 17 6 18 66 12 61 -7 66 -6 62 11 -2 14 -17 22 -58 30 -36 7
-55 15 -55 25 0 36 185 15 307 -36 77 -32 91 -34 96 -14 7 38 -216 109 -342
109 -65 0 -66 1 -66 27 l0 26 98 -6 c100 -7 192 -27 306 -68 35 -13 68 -20 72
-17 39 39 -188 114 -376 125 -97 6 -119 12 -120 37 0 5 57 6 133 3 163 -7 270
-32 396 -93 124 -61 239 -171 294 -284 52 -104 73 -213 59 -299 -29 -171 -156
-329 -334 -415 -148 -72 -239 -90 -448 -90 -162 0 -182 2 -265 28 -163 50
-280 132 -357 250 -61 95 -103 266 -65 266 9 0 17 -26 24 -75 13 -90 48 -167
107 -232 49 -54 134 -109 184 -119 27 -6 32 -4 32 13 0 12 -11 23 -33 31 -132
48 -233 179 -253 331 -9 67 8 66 25 -1 37 -145 146 -268 236 -268 42 0 27 31
-22 47 -78 26 -156 140 -179 257 -6 34 -4 36 19 36 21 0 28 -7 39 -42 9 -26
22 -44 33 -47 16 -3 17 2 11 37 -3 22 -8 47 -12 55 -4 10 7 17 40 26 75 19 97
60 55 102 -14 14 -28 19 -42 15 -92 -27 -251 -57 -353 -67 -270 -25 -580 32
-842 156 -124 59 -196 103 -309 192 -108 84 -137 91 -163 37 -12 -26 -20 -31
-49 -30 -19 1 -36 -5 -38 -11 -6 -17 38 -33 86 -33 38 0 72 -23 57 -38 -4 -4
-71 -7 -149 -6 -116 0 -156 5 -217 23 -97 28 -114 30 -118 9 -4 -20 88 -52
202 -69 66 -11 236 -7 311 6 28 5 66 -8 55 -18 -12 -12 -274 -29 -347 -23
-226 19 -410 122 -492 276 -33 61 -47 72 -57 45 -15 -39 72 -163 161 -230 163
-123 405 -161 717 -114 65 10 80 9 98 -4 22 -15 22 -16 -16 -26 -186 -52 -443
-62 -589 -22 -139 37 -238 94 -336 191 -125 124 -171 228 -172 395 -1 261 156
477 401 549 29 8 52 12 50 8 -2 -4 -12 -23 -22 -44 -18 -35 -17 -68 4 -68 5 0
16 15 23 33 20 46 81 97 117 97 35 0 38 -10 10 -35 -28 -25 -77 -105 -85 -137
-6 -23 -4 -28 12 -28 14 0 26 13 39 41 25 57 115 151 137 144 9 -3 24 -7 32
-10 11 -3 2 -21 -37 -72 -73 -97 -98 -163 -60 -163 11 0 24 16 36 46 11 26 45
74 76 107 52 56 58 59 79 47 23 -12 23 -12 -31 -68 -63 -65 -108 -129 -108
-154 0 -25 28 -48 60 -48 23 0 35 9 58 43 40 57 130 140 180 166 98 50 220 63
326 36 53 -14 61 -14 82 0 13 9 24 25 24 36 0 43 -18 57 -96 75 -92 20 -211
15 -297 -12 -42 -13 -60 -15 -68 -7 -8 8 2 18 40 37 74 38 174 59 254 53 54
-3 70 -1 74 10 9 24 -17 33 -94 33 -91 0 -161 -15 -242 -51 -75 -34 -67 -33
-74 -14 -8 20 61 69 128 90 50 15 69 35 46 49 -15 9 -103 -22 -153 -53 -44
-28 -48 -29 -48 -11 0 27 62 66 162 101 54 18 84 34 87 45 5 28 -81 10 -176
-35 -45 -22 -84 -37 -87 -33 -3 3 -6 15 -6 28 0 25 42 55 106 78 47 16 59 46
19 46 -14 0 -44 -9 -66 -21 -23 -11 -43 -18 -47 -15 -10 10 29 130 60 184 16
29 55 80 86 114 l56 60 11 -38 c8 -28 16 -39 30 -39 14 0 19 6 17 20 -15 88
-15 88 9 106 33 25 36 24 44 -17 10 -55 26 -84 47 -84 22 0 23 16 3 63 -22 54
-19 82 10 95 14 7 27 12 29 12 2 0 6 -18 10 -41 8 -52 32 -99 51 -99 24 0 26
17 5 61 -11 24 -20 56 -20 71 0 24 6 29 52 43 133 39 279 51 443 35z m-1960
-1150 c49 -6 91 -12 93 -15 2 -2 -5 -32 -17 -67 -67 -203 -42 -422 68 -590 86
-131 230 -245 381 -301 130 -49 213 -62 385 -61 169 1 272 17 435 67 l75 23
72 -33 c218 -100 559 -172 768 -161 l60 3 7 -60 c24 -186 141 -360 313 -464
74 -45 196 -88 303 -106 47 -8 86 -16 88 -18 1 -1 35 -54 76 -117 677 -1048
846 -2347 461 -3535 -146 -450 -366 -869 -655 -1245 -102 -134 -124 -160 -132
-160 -4 0 -31 20 -60 44 -106 86 -233 148 -382 187 -117 30 -326 33 -454 6
-395 -84 -736 -343 -846 -644 -27 -72 -29 -88 -29 -218 0 -126 3 -147 27 -213
30 -84 100 -198 158 -261 23 -24 38 -47 33 -51 -13 -13 -291 -116 -398 -148
-174 -53 -245 -70 -425 -106 -311 -62 -413 -71 -810 -71 -314 0 -374 3 -520
23 -241 33 -385 64 -384 82 1 8 10 53 19 100 67 323 -100 661 -406 820 -109
57 -208 80 -339 80 -184 0 -336 -53 -488 -168 -46 -35 -85 -62 -86 -60 -1 2
-11 26 -21 53 -48 132 -172 268 -299 330 -114 56 -180 68 -326 62 -69 -4 -138
-9 -155 -12 -28 -5 -36 2 -108 84 -872 997 -1224 2281 -976 3565 15 82 30 150
32 152 2 2 55 17 118 32 144 37 245 79 354 147 108 68 169 122 239 209 110
138 164 274 173 432 12 211 -75 413 -226 528 l-51 38 51 73 c111 160 273 350
459 536 348 348 668 579 1100 795 481 240 997 380 1556 424 136 11 568 4 689
-10z m-4440 -1216 c202 -51 363 -200 410 -379 32 -126 11 -277 -55 -375 -16
-25 -30 -55 -30 -67 0 -29 42 -57 70 -48 23 7 94 109 104 150 4 14 11 25 18
25 7 0 9 -20 6 -64 -6 -72 -42 -160 -89 -219 -18 -22 -28 -44 -25 -53 9 -24
27 -12 69 42 42 55 77 138 84 202 6 47 20 53 51 19 l22 -23 -25 -74 c-30 -88
-32 -113 -7 -108 11 2 24 24 37 60 11 31 23 60 27 63 10 10 56 -86 73 -152 33
-125 14 -258 -54 -398 -155 -316 -558 -509 -1029 -492 -164 5 -228 19 -341 72
-145 69 -274 235 -288 370 -5 50 -4 53 15 49 15 -4 22 -17 27 -49 14 -100 101
-221 197 -278 62 -36 157 -62 171 -47 9 8 7 15 -7 26 -11 8 -27 14 -35 14 -34
0 -124 52 -175 100 -51 48 -94 123 -110 193 -5 22 -3 27 13 27 14 0 26 -13 39
-44 38 -84 148 -176 212 -176 36 0 22 30 -24 49 -56 25 -112 74 -137 122 -25
49 -25 49 11 49 17 0 46 7 65 14 30 13 35 20 35 49 0 52 -18 62 -94 49 -140
-23 -265 34 -343 155 -28 44 -38 53 -63 53 -20 0 -35 -8 -45 -24 -14 -22 -14
-27 1 -66 l17 -43 -26 -23 c-28 -24 -85 -44 -125 -44 -17 0 -23 -5 -20 -17 7
-37 104 -23 166 24 l34 26 21 -21 21 -21 -86 -40 c-280 -129 -634 -194 -939
-171 -356 27 -555 120 -615 287 -18 51 -17 88 2 154 41 139 165 259 367 354
281 133 604 151 905 49 145 -48 347 -167 364 -214 9 -25 8 -25 -55 6 -74 38
-212 83 -276 91 -47 5 -53 4 -50 -12 3 -13 28 -23 99 -41 132 -33 309 -121
334 -166 30 -53 58 -78 86 -78 55 0 67 53 25 110 -34 46 -62 125 -70 196 -21
193 119 435 357 615 214 160 460 219 683 163z m8746 -4588 c174 -37 339 -151
434 -301 59 -92 108 -266 71 -252 -8 3 -20 0 -26 -8 -9 -11 -6 -17 14 -30 22
-14 26 -25 26 -62 l0 -44 -49 50 c-53 54 -68 61 -78 35 -4 -11 5 -24 26 -41
36 -28 71 -91 71 -125 -1 -13 -7 -34 -14 -47 l-13 -24 -12 36 c-14 43 -37 65
-52 50 -7 -7 -2 -30 15 -72 21 -51 23 -66 13 -82 -17 -27 -22 -24 -41 25 -24
62 -94 158 -114 154 -27 -5 -24 -25 7 -61 37 -42 94 -159 89 -184 -6 -34 -33
-25 -47 14 -24 70 -58 113 -89 113 -58 0 -67 -45 -26 -130 52 -108 67 -250 39
-369 -25 -103 -72 -188 -152 -272 -74 -77 -88 -110 -61 -137 7 -7 26 -12 43
-12 58 0 190 157 245 293 13 31 27 57 32 57 12 0 9 -50 -7 -94 -15 -43 -12
-56 11 -56 16 0 33 36 41 88 4 23 10 32 22 30 26 -5 26 -71 0 -124 -21 -45
-16 -76 11 -59 18 11 50 86 50 118 0 31 3 32 34 12 22 -14 23 -19 14 -58 -5
-23 -16 -52 -24 -64 -19 -30 -18 -43 5 -43 22 0 49 38 58 82 l6 32 43 -49
c117 -132 171 -322 144 -507 -15 -110 -19 -116 -57 -84 -37 31 -63 34 -63 6 0
-11 3 -20 8 -20 4 0 22 -13 41 -29 32 -27 33 -29 22 -64 l-12 -36 -52 40 c-29
21 -60 39 -69 39 -31 0 -20 -34 16 -54 19 -10 45 -29 57 -42 19 -21 20 -26 9
-54 -7 -16 -15 -30 -17 -30 -3 0 -27 20 -54 44 -72 64 -139 91 -139 56 0 -6
19 -22 43 -36 52 -32 117 -94 117 -111 0 -22 -169 -190 -245 -242 -41 -29
-121 -74 -177 -101 l-103 -50 -14 60 c-11 46 -19 60 -33 60 -22 0 -23 -20 -4
-83 l14 -47 -39 -12 c-22 -6 -41 -9 -42 -7 -2 2 -10 29 -18 59 -9 36 -19 55
-29 55 -17 0 -19 -35 -6 -97 7 -34 6 -38 -12 -38 -11 0 -23 8 -26 18 -3 9 -12
43 -21 75 -13 44 -21 57 -36 57 -24 0 -24 -9 1 -90 11 -36 20 -68 20 -72 0
-15 -154 -32 -285 -32 -276 1 -475 80 -635 251 -39 41 -70 78 -70 83 0 4 19
11 43 16 27 6 42 15 42 24 0 12 -13 15 -58 15 -40 0 -60 5 -67 15 -16 24 -12
27 41 28 72 1 119 19 119 44 0 16 -4 19 -22 13 -13 -3 -55 -9 -94 -12 l-71 -5
-12 32 c-6 18 -11 37 -11 41 0 5 29 9 65 9 84 0 175 32 175 62 0 23 -12 22
-89 -7 -27 -10 -66 -15 -100 -13 -48 3 -56 6 -59 24 -3 19 3 21 80 27 94 7
196 31 217 52 34 34 2 102 -44 92 -151 -36 -175 -39 -265 -34 -109 6 -207 35
-297 89 -77 45 -180 151 -227 231 -26 45 -47 69 -63 73 -31 8 -63 -20 -63 -56
0 -27 68 -139 130 -212 l31 -37 -33 -15 -33 -14 -56 58 c-36 38 -67 85 -90
134 -23 51 -40 75 -51 76 -11 0 -18 -7 -18 -17 0 -31 55 -136 108 -206 l52
-68 -28 -10 c-35 -14 -66 4 -112 65 -49 64 -97 61 -53 -4 9 -14 30 -40 46 -57
17 -18 29 -34 26 -36 -2 -2 -21 -8 -41 -14 -37 -11 -39 -10 -79 35 -22 25 -52
68 -67 94 -26 47 -44 59 -57 38 -8 -13 39 -100 82 -150 l34 -39 -27 -7 c-23
-6 -33 -1 -66 35 -60 63 -98 48 -42 -18 l25 -30 -28 -8 c-53 -13 -275 -7 -358
11 -340 74 -575 327 -575 619 0 45 6 105 14 133 51 194 226 384 464 507 254
131 494 166 728 107 118 -30 267 -107 347 -180 37 -34 67 -65 67 -69 0 -3 -12
-13 -26 -22 -25 -15 -27 -15 -73 30 -84 80 -203 140 -313 156 -44 7 -48 5 -48
-13 0 -16 11 -22 60 -31 85 -17 206 -81 263 -139 l47 -48 -24 -23 -25 -24 -45
46 c-51 51 -107 81 -182 98 -56 13 -84 8 -84 -15 0 -9 16 -16 48 -21 74 -11
135 -42 187 -95 40 -40 46 -52 36 -64 -10 -12 -19 -9 -63 20 -28 19 -58 34
-66 32 -28 -5 -24 -28 8 -45 18 -10 43 -26 56 -37 23 -17 24 -20 9 -42 -18
-28 -20 -65 -3 -82 18 -18 66 -15 82 6 127 157 188 209 320 273 114 56 202 72
349 67 104 -4 136 -10 219 -38 54 -18 104 -30 113 -26 8 3 20 17 27 30 20 46
-9 71 -119 105 -54 16 -114 33 -134 36 -30 4 -38 11 -42 33 -3 15 -3 29 0 32
13 14 142 4 181 -14 32 -14 46 -16 54 -8 31 31 -69 72 -174 72 l-68 0 0 29 c0
23 5 30 22 33 30 4 37 38 9 38 -17 0 -21 6 -21 33 0 55 9 60 91 54 41 -3 83
-7 94 -9 12 -2 21 3 23 13 4 23 -47 39 -125 39 -55 0 -64 3 -61 17 2 9 20 21
43 27 47 14 55 41 13 41 -39 -1 -36 17 21 132 127 252 366 430 641 476 57 10
189 6 251 -7z m-1088 -686 c-8 -36 -16 -126 -18 -200 l-4 -135 -79 -7 c-44 -4
-108 -17 -143 -27 -35 -11 -64 -19 -65 -18 -1 1 46 66 105 143 58 78 131 180
161 227 30 47 56 85 56 84 1 -1 -5 -31 -13 -67z m-6298 -625 c173 -45 322
-195 365 -368 14 -54 8 -77 -19 -77 -19 0 -31 18 -31 49 0 33 -69 155 -112
199 -74 77 -189 141 -225 128 -26 -10 -11 -26 50 -54 114 -52 214 -168 246
-287 11 -41 -2 -78 -14 -39 -34 109 -115 207 -208 254 -72 36 -107 39 -107 10
0 -11 7 -20 16 -20 35 0 124 -53 168 -100 49 -53 85 -119 86 -157 0 -35 -13
-28 -40 22 -15 27 -32 45 -42 45 -23 0 -23 -12 3 -61 l20 -41 -20 -22 c-25
-27 -27 -59 -4 -81 20 -20 43 -17 138 20 91 36 237 45 337 21 81 -19 188 -71
247 -120 48 -40 57 -43 89 -20 38 26 29 67 -24 111 l-47 38 29 12 c16 6 37 10
47 7 22 -7 36 24 16 37 -22 14 -52 11 -94 -11 l-39 -20 -44 20 c-23 11 -40 25
-37 30 22 36 189 90 278 90 41 0 47 3 47 21 0 21 -3 22 -82 16 -97 -6 -182
-34 -255 -82 -39 -26 -58 -33 -73 -27 -20 7 -19 10 17 39 89 71 231 123 339
123 114 0 262 -56 349 -132 44 -39 75 -49 75 -24 0 23 -89 95 -163 132 -212
108 -465 75 -647 -83 -37 -32 -50 -38 -74 -33 l-30 5 60 52 c121 108 290 173
446 173 117 0 176 -14 286 -66 156 -75 281 -217 338 -386 77 -223 13 -489
-160 -663 -78 -79 -135 -116 -235 -152 -126 -46 -291 -39 -401 17 -45 23 -43
20 -31 54 l10 25 40 -20 c126 -60 300 -49 424 28 38 24 50 53 21 53 -8 0 -34
-11 -57 -25 -64 -37 -161 -58 -234 -52 -64 6 -174 44 -180 62 -8 28 13 32 98
17 48 -8 95 -12 105 -8 33 13 -7 33 -101 50 -49 9 -92 21 -93 26 -7 19 -33 40
-51 40 -33 0 -49 -25 -75 -120 -94 -338 -354 -602 -693 -707 -80 -25 -102 -27
-253 -27 -161 0 -168 1 -260 32 -134 47 -193 83 -290 181 -96 96 -157 202
-185 321 -17 73 -19 194 -5 255 12 52 -7 85 -49 85 -34 0 -51 -18 -61 -63 -4
-17 -11 -31 -16 -30 -5 1 -38 5 -72 9 -58 6 -62 5 -62 -14 0 -16 9 -21 48 -27
93 -13 92 -12 92 -62 l0 -46 -54 6 c-105 11 -236 97 -292 193 -14 24 -30 44
-35 44 -21 0 -20 -32 4 -73 59 -99 191 -187 312 -207 63 -10 75 -20 75 -62 0
-25 -3 -28 -34 -28 -56 0 -186 46 -253 90 -126 83 -228 227 -253 359 -24 130
-1 286 61 402 68 127 211 235 364 274 68 17 213 20 268 4 33 -9 37 -13 31 -32
-3 -12 -7 -23 -8 -24 -1 -1 -21 2 -44 8 -66 15 -152 -10 -152 -43 0 -16 4 -19
23 -13 46 14 124 17 146 5 34 -18 20 -34 -35 -40 -41 -4 -49 -8 -49 -25 0 -18
6 -20 46 -17 43 3 47 2 53 -23 16 -63 106 -50 106 16 0 58 32 175 70 254 83
172 225 294 405 346 77 23 230 24 310 4z"/>
<path d="M12426 14981 c-10 -15 32 -101 49 -101 20 0 19 31 -2 75 -16 34 -36
45 -47 26z"/>
<path d="M12370 14945 c0 -24 28 -85 39 -85 19 0 22 20 10 60 -9 28 -18 40
-31 40 -10 0 -18 -7 -18 -15z"/>
<path d="M11765 14480 c-11 -18 6 -28 55 -32 39 -3 45 -1 45 17 0 17 -8 20
-47 23 -27 2 -49 -2 -53 -8z"/>
<path d="M12112 14133 c2 -36 7 -49 21 -51 14 -3 17 4 17 47 0 45 -3 51 -21
51 -18 0 -20 -5 -17 -47z"/>
<path d="M12192 14118 c2 -30 7 -43 18 -43 24 0 21 79 -3 83 -16 3 -18 -2 -15
-40z"/>
<path d="M12320 14080 c0 -23 4 -30 20 -30 16 0 20 7 20 30 0 23 -4 30 -20 30
-16 0 -20 -7 -20 -30z"/>
<path d="M13200 14069 c0 -20 21 -49 35 -49 16 0 19 18 9 44 -7 18 -44 22 -44
5z"/>
<path d="M10996 14031 c-10 -16 5 -41 26 -41 14 0 19 6 16 22 -3 24 -32 36
-42 19z"/>
<path d="M10743 13604 c-7 -18 12 -64 27 -64 17 0 23 30 12 56 -13 27 -30 31
-39 8z"/>
<path d="M10994 13348 c-8 -12 30 -48 52 -48 25 0 27 23 4 42 -26 21 -46 23
-56 6z"/>
<path d="M14050 13331 c0 -21 80 -91 104 -91 29 0 17 28 -30 69 -51 45 -74 52
-74 22z"/>
<path d="M13177 12783 c-15 -14 -5 -32 28 -53 58 -36 79 -1 22 38 -36 24 -40
25 -50 15z"/>
<path d="M14213 12764 c-6 -16 9 -33 50 -55 32 -18 34 21 3 48 -32 27 -44 29
-53 7z"/>
<path d="M14177 12683 c-13 -12 -7 -23 23 -38 27 -14 31 -14 36 0 11 29 -37
60 -59 38z"/>
<path d="M14084 12579 c-8 -13 3 -24 34 -34 16 -4 24 -2 29 10 10 28 -47 50
-63 24z"/>
<path d="M13300 12456 c0 -19 9 -24 58 -32 38 -6 42 -4 42 14 0 21 -24 32 -72
32 -18 0 -28 -5 -28 -14z"/>
<path d="M7763 10909 c-155 -15 -381 -94 -428 -151 -53 -63 -19 -158 57 -158
18 0 53 10 78 21 64 30 175 69 193 69 35 0 34 -73 -10 -510 -30 -309 -42 -655
-23 -700 23 -56 102 -50 176 14 l39 34 7 228 c8 253 21 447 44 629 14 115 40
272 50 306 4 13 24 17 112 21 121 6 179 24 217 70 29 34 33 82 9 116 -15 22
-19 22 -227 21 -117 -1 -249 -5 -294 -10z"/>
<path d="M8566 10909 c-22 -5 -65 -21 -97 -35 -81 -37 -88 -56 -59 -180 25
-110 24 -127 -22 -312 -28 -119 -30 -133 -31 -360 -1 -307 25 -457 91 -516 31
-27 132 -19 166 14 30 27 29 47 -17 250 -31 142 -39 272 -19 322 13 32 69 53
119 43 72 -13 124 -104 188 -332 55 -191 80 -248 141 -313 44 -47 50 -50 95
-50 60 0 98 17 105 46 4 15 -13 67 -50 153 -71 166 -165 484 -166 562 0 9 19
29 42 44 63 42 146 124 173 170 59 102 35 179 -99 311 -69 68 -100 90 -177
127 -52 25 -118 50 -147 56 -63 13 -181 13 -236 0z m239 -221 c96 -24 191 -92
234 -168 l23 -41 -44 -41 c-84 -79 -243 -134 -349 -121 -86 11 -94 27 -60 126
11 32 25 91 30 133 19 134 35 145 166 112z"/>
<path d="M9710 10913 c-47 -17 -89 -91 -114 -198 -43 -187 -59 -250 -95 -367
-22 -70 -58 -205 -81 -300 -23 -95 -60 -229 -82 -298 -26 -80 -42 -152 -45
-201 -5 -71 -4 -77 18 -93 28 -19 97 -21 121 -2 25 18 53 88 73 176 33 152 91
203 240 208 68 2 86 -1 120 -20 49 -28 81 -88 90 -166 17 -148 55 -212 125
-212 46 0 94 21 104 45 13 35 5 95 -25 181 -45 132 -49 167 -32 236 18 72 12
97 -29 123 -32 20 -34 24 -93 275 -34 140 -71 289 -84 330 -38 127 -101 278
-117 284 -19 7 -73 7 -94 -1z m116 -660 c21 -63 25 -91 22 -151 -3 -63 -7 -77
-26 -93 -35 -27 -89 -34 -151 -18 -79 20 -82 31 -43 142 18 51 37 122 43 157
5 36 21 90 35 120 l26 55 34 -67 c19 -37 46 -102 60 -145z"/>
<path d="M10967 10899 c-24 -12 -44 -33 -52 -52 -19 -49 -60 -219 -111 -462
-44 -214 -119 -466 -139 -469 -5 0 -29 37 -52 84 -32 63 -57 142 -99 304 -65
256 -91 322 -128 332 -34 8 -81 -12 -128 -54 -38 -34 -38 -35 -38 -111 0 -107
28 -212 113 -423 41 -101 82 -206 91 -234 9 -28 37 -84 62 -125 57 -92 104
-184 104 -203 0 -61 178 -63 229 -3 7 9 24 76 37 149 14 73 51 232 84 353 85
315 115 440 155 638 43 215 47 264 20 283 -27 20 -104 17 -148 -7z"/>
<path d="M12175 10907 c-64 -30 -70 -48 -104 -287 -33 -236 -41 -332 -51 -595
-6 -137 -13 -290 -16 -340 -8 -110 5 -163 50 -213 l33 -36 54 17 c89 28 166
37 326 37 184 0 291 13 361 46 64 29 129 78 137 104 7 23 -14 67 -56 115 -39
44 -78 46 -151 9 -28 -14 -72 -32 -97 -40 -60 -17 -206 -34 -303 -34 l-77 0
-8 38 c-4 20 -8 116 -7 212 0 153 4 199 34 370 31 174 35 214 35 377 0 173 -1
184 -21 204 -27 27 -98 35 -139 16z"/>
<path d="M11498 10798 c-113 -11 -214 -67 -270 -151 -23 -33 -28 -51 -28 -102
0 -34 5 -87 10 -117 6 -31 12 -94 13 -140 2 -79 0 -86 -25 -117 -16 -18 -28
-39 -28 -47 0 -8 12 -38 28 -67 l27 -52 0 -220 c0 -199 2 -224 20 -260 l20
-40 75 -7 c133 -13 228 7 450 95 113 45 139 59 158 87 26 39 29 101 6 125 -21
21 -37 17 -189 -47 -129 -54 -254 -86 -296 -75 -33 8 -37 25 -45 177 -5 99 -3
120 13 149 33 63 60 74 202 86 105 9 133 15 159 34 53 37 57 55 22 95 -42 48
-77 57 -216 55 -65 -1 -130 3 -144 8 l-25 11 0 142 0 142 33 29 c27 24 41 29
85 29 28 0 77 -7 107 -15 86 -23 143 -20 179 11 41 35 42 75 2 104 -89 63
-214 92 -343 78z"/>
<path d="M7480 9181 c0 -10 7 -21 15 -25 11 -4 15 -20 15 -57 0 -29 5 -81 11
-117 9 -50 9 -69 -1 -88 -26 -47 19 -44 88 6 82 59 92 128 23 158 l-38 18 39
28 c21 15 37 33 35 40 -6 21 -91 55 -139 56 -41 0 -48 -3 -48 -19z m122 -46
c0 -17 -30 -31 -42 -19 -18 18 -1 44 22 35 11 -4 19 -11 20 -16z m16 -117 c19
-19 14 -42 -13 -68 -14 -13 -27 -22 -29 -19 -2 2 -7 25 -10 52 -7 45 -6 47 16
47 13 0 29 -5 36 -12z"/>
<path d="M8116 9192 c-3 -5 -9 -26 -15 -48 -5 -21 -23 -91 -40 -154 -19 -71
-27 -118 -21 -124 14 -14 37 9 44 44 4 20 14 34 31 40 37 14 62 -3 75 -51 8
-30 16 -39 28 -37 11 3 16 12 14 28 -1 14 -4 41 -5 60 -2 19 -9 45 -15 57 -7
12 -12 28 -12 35 0 7 -10 46 -21 86 -17 55 -26 72 -40 72 -10 0 -20 -4 -23 -8z
m44 -169 c0 -28 -3 -33 -24 -33 -33 0 -35 7 -18 64 14 49 14 50 28 25 7 -13
13 -39 14 -56z"/>
<path d="M9181 9186 c-10 -12 -10 -42 -1 -143 15 -171 20 -201 35 -207 27 -10
37 20 26 74 -6 28 -11 59 -11 68 1 15 2 15 15 -2 55 -73 89 -93 101 -61 4 10
-10 33 -38 63 -75 80 -75 84 -18 120 28 17 50 38 50 47 0 24 -44 18 -70 -10
-32 -34 -38 -32 -42 17 -3 46 -25 61 -47 34z"/>
<path d="M10290 9190 c-26 -16 -34 -280 -9 -306 19 -18 53 -8 45 13 -4 8 -9
39 -12 69 -7 53 -6 54 19 54 20 0 28 -8 41 -40 9 -22 16 -46 16 -54 0 -20 39
-66 57 -66 17 0 17 4 -16 113 l-20 67 24 16 c50 32 38 84 -28 124 -34 21 -92
26 -117 10z m111 -59 c20 -16 22 -23 13 -38 -11 -18 -79 -41 -90 -30 -3 3 -3
24 1 46 6 34 11 41 30 41 12 0 33 -9 46 -19z"/>
<path d="M11581 9171 c-11 -7 -15 -33 -15 -99 -1 -75 -5 -95 -22 -118 -27 -37
-37 -39 -69 -11 -23 19 -29 34 -33 80 -2 31 0 68 5 84 17 49 -7 71 -41 38 -21
-21 -30 -112 -17 -163 25 -93 87 -125 157 -82 57 36 95 155 76 239 -8 37 -19
46 -41 32z"/>
<path d="M12094 9169 c-3 -6 -1 -36 6 -67 6 -32 10 -73 8 -92 l-4 -35 -22 50
c-38 85 -47 100 -62 100 -19 0 -28 -40 -31 -143 -3 -83 -3 -87 19 -90 20 -3
22 1 22 47 0 28 4 51 8 51 5 0 18 -18 31 -40 25 -45 43 -50 65 -18 19 26 22
152 5 211 -10 36 -31 48 -45 26z"/>
<path d="M12516 9172 c-3 -6 -1 -34 5 -63 6 -29 9 -88 7 -131 -4 -70 -3 -80
14 -89 15 -8 31 -5 66 13 37 18 52 34 71 71 l24 49 -19 45 c-10 25 -35 58 -54
74 -37 30 -104 48 -114 31z m96 -72 c14 -10 31 -33 38 -49 10 -25 9 -35 -5
-66 -17 -35 -51 -62 -63 -51 -11 11 -15 186 -5 186 6 0 22 -9 35 -20z"/>
<path d="M9774 9131 c-41 -25 -64 -77 -64 -145 0 -68 14 -101 51 -116 28 -12
84 -6 106 12 6 5 17 32 23 60 10 41 10 52 -1 59 -19 12 -32 11 -53 -4 -16 -12
-17 -16 -5 -35 10 -16 11 -27 3 -39 -16 -25 -31 -26 -53 -4 -26 26 -28 84 -5
140 18 45 33 54 79 45 40 -7 57 12 30 33 -26 19 -75 16 -111 -6z"/>
<path d="M8652 9100 c-53 -33 -77 -115 -51 -174 13 -27 61 -54 113 -63 47 -7
106 13 106 37 0 29 -17 33 -55 16 -59 -28 -111 0 -121 65 -8 45 26 91 65 89
53 -4 71 0 71 15 0 17 -38 35 -73 35 -12 0 -37 -9 -55 -20z"/>
<path d="M10869 9071 c-33 -33 -39 -45 -39 -81 0 -50 42 -100 85 -100 57 0
115 61 115 120 0 29 -26 77 -49 90 -38 20 -72 11 -112 -29z m89 -27 c28 -19
28 -53 1 -88 -25 -32 -44 -33 -64 -2 -16 24 -9 62 17 93 13 17 19 16 46 -3z"/>
<path d="M6274 11895 c-9 -21 24 -105 41 -105 24 0 26 17 8 66 -19 50 -39 66
-49 39z"/>
<path d="M6206 11842 c-7 -12 25 -72 40 -72 22 0 25 18 9 50 -15 28 -38 39
-49 22z"/>
<path d="M6121 11791 c-18 -12 -1 -65 22 -69 13 -3 17 4 17 26 0 34 -19 55
-39 43z"/>
<path d="M6563 11733 c-43 -30 -19 -58 28 -33 21 12 26 50 7 49 -7 0 -23 -7
-35 -16z"/>
<path d="M5936 11715 c-6 -18 16 -30 39 -21 8 3 15 12 15 21 0 20 -46 20 -54
0z"/>
<path d="M4613 11574 c-7 -18 23 -47 38 -38 15 9 10 42 -7 48 -22 9 -24 8 -31
-10z"/>
<path d="M4534 11489 c-8 -14 5 -26 38 -34 21 -5 29 -3 34 10 4 10 1 21 -7 26
-19 12 -56 11 -65 -2z"/>
<path d="M5575 11043 c-28 -7 -39 -19 -32 -36 8 -22 89 -1 85 22 -3 17 -21 22
-53 14z"/>
<path d="M14684 7879 c-8 -14 3 -24 45 -38 36 -12 51 -8 51 15 0 26 -81 46
-96 23z"/>
<path d="M14656 7813 c-21 -21 24 -53 75 -53 24 0 25 26 2 38 -28 14 -69 22
-77 15z"/>
<path d="M13932 7583 c2 -10 10 -18 18 -18 8 0 16 8 18 18 2 12 -3 17 -18 17
-15 0 -20 -5 -18 -17z"/>
<path d="M15114 7489 c-7 -12 32 -48 53 -49 21 0 25 21 7 41 -19 21 -49 25
-60 8z"/>
<path d="M13893 7364 c-7 -18 17 -38 31 -24 11 11 1 40 -14 40 -6 0 -13 -7
-17 -16z"/>
<path d="M13977 7353 c-14 -13 -6 -24 28 -39 37 -15 55 -12 55 10 0 22 -67 46
-83 29z"/>
<path d="M12587 7184 c-21 -21 -5 -34 44 -34 43 0 50 3 47 18 -2 12 -14 18
-43 20 -23 2 -44 0 -48 -4z"/>
<path d="M12662 7083 c-36 -7 -24 -37 16 -41 23 -2 34 2 39 13 5 15 -13 37
-27 33 -3 0 -15 -3 -28 -5z"/>
<path d="M15074 6535 c-4 -14 -3 -29 0 -33 11 -11 41 14 44 37 5 32 -36 29
-44 -4z"/>
<path d="M15161 6500 c-14 -8 -8 -40 7 -40 5 0 15 6 21 14 15 17 -8 39 -28 26z"/>
<path d="M12655 6209 c-10 -15 15 -69 32 -69 22 0 27 28 9 55 -18 27 -31 31
-41 14z"/>
<path d="M14136 6191 c-9 -13 3 -39 20 -45 17 -6 29 17 20 39 -6 17 -32 20
-40 6z"/>
<path d="M14010 6115 c0 -17 35 -55 49 -55 19 0 22 22 7 45 -18 27 -56 34 -56
10z"/>
<path d="M13904 6078 c-7 -12 67 -88 86 -88 6 0 13 7 17 15 3 10 -8 28 -33 50
-41 36 -58 42 -70 23z"/>
<path d="M13824 5869 c-9 -15 12 -33 30 -26 9 4 16 13 16 22 0 17 -35 21 -46
4z"/>
<path d="M13753 5538 c-27 -13 -31 -48 -5 -48 24 1 52 24 52 44 0 18 -15 20
-47 4z"/>
<path d="M7297 6823 c-17 -17 -6 -34 20 -31 36 4 45 38 10 38 -13 0 -27 -3
-30 -7z"/>
<path d="M7395 6560 c-10 -17 4 -27 46 -35 38 -7 61 7 42 26 -16 16 -80 23
-88 9z"/>
<path d="M8540 6515 c0 -8 9 -19 20 -25 16 -9 22 -8 26 4 3 8 3 20 -1 26 -9
15 -45 12 -45 -5z"/>
<path d="M8866 6371 c-8 -12 19 -74 38 -90 17 -15 36 -7 36 15 0 8 -10 30 -22
49 -23 34 -41 44 -52 26z"/>
<path d="M6073 5693 c-7 -17 28 -53 53 -53 27 0 27 24 -2 47 -35 27 -43 28
-51 6z"/>
<path d="M8812 5657 c-24 -26 -29 -57 -9 -57 19 0 70 57 63 69 -11 17 -31 13
-54 -12z"/>
<path d="M8555 5640 c-10 -16 4 -30 31 -30 17 0 24 5 24 20 0 15 -7 20 -24 20
-14 0 -28 -4 -31 -10z"/>
<path d="M6575 5530 c-12 -19 10 -32 46 -28 48 4 46 32 -3 36 -20 2 -39 -2
-43 -8z"/>
<path d="M7652 5453 c2 -12 12 -18 28 -18 36 0 33 29 -3 33 -23 3 -28 0 -25
-15z"/>
<path d="M6570 5440 c0 -11 6 -20 14 -20 8 0 21 -3 30 -6 21 -8 34 25 15 37
-26 17 -59 11 -59 -11z"/>
<path d="M7572 5363 c3 -18 71 -38 95 -29 24 10 13 33 -18 40 -57 11 -81 8
-77 -11z"/>
<path d="M6530 5350 c0 -21 28 -32 89 -34 56 -2 46 25 -14 41 -67 17 -75 16
-75 -7z"/>
<path d="M10914 15175 c-25 -60 -13 -95 32 -95 28 0 44 20 51 64 7 42 -9 66
-44 66 -18 0 -28 -9 -39 -35z"/>
<path d="M10854 14964 c-25 -38 -9 -79 31 -79 23 0 33 7 43 29 31 62 -37 108
-74 50z"/>
<path d="M2596 14294 c-16 -15 -22 -75 -10 -87 4 -4 8 -20 9 -37 3 -40 23 -62
53 -58 35 4 49 30 36 65 -6 19 -7 37 0 55 8 23 6 32 -14 53 -27 29 -52 32 -74
9z"/>
<path d="M2760 14155 c-19 -23 -4 -57 35 -84 33 -22 36 -23 60 -7 33 22 32 49
-6 80 -34 29 -70 34 -89 11z"/>
<path d="M2534 14085 c-25 -60 -13 -95 32 -95 28 0 44 20 51 64 7 42 -9 66
-44 66 -18 0 -28 -9 -39 -35z"/>
<path d="M2662 14018 c-18 -18 -15 -49 8 -85 22 -36 49 -42 75 -17 18 19 14
53 -11 92 -16 24 -53 29 -72 10z"/>
<path d="M2952 14008 c-19 -19 -14 -55 10 -72 29 -20 52 -20 72 0 22 21 20 39
-6 64 -24 22 -58 26 -76 8z"/>
<path d="M2491 13901 c-21 -13 -27 -94 -8 -110 25 -20 51 -9 71 32 15 31 16
44 7 63 -11 25 -43 32 -70 15z"/>
<path d="M2752 13818 c-16 -16 -15 -43 3 -78 19 -37 50 -47 76 -24 24 22 24
41 -1 82 -21 34 -55 43 -78 20z"/>
<path d="M2442 13694 c-48 -34 -14 -122 37 -95 36 19 43 84 12 101 -25 13 -22
13 -49 -6z"/>
<path d="M2856 13624 c-10 -27 -7 -45 15 -75 21 -30 56 -38 77 -17 31 31 -10
108 -58 108 -16 0 -30 -7 -34 -16z"/>
<path d="M2992 13458 c-20 -20 -14 -50 15 -80 28 -30 61 -36 81 -16 19 19 14
44 -14 77 -27 32 -61 40 -82 19z"/>
<path d="M3140 13295 c-19 -23 -4 -61 35 -85 43 -27 75 -15 75 30 0 52 -79 92
-110 55z"/>
<path d="M3316 13164 c-24 -24 -19 -50 15 -78 38 -32 64 -33 84 -2 19 29 13
45 -28 74 -39 26 -50 27 -71 6z"/>
<path d="M3503 13052 c-11 -7 -16 -25 -14 -53 0 -9 19 -24 42 -34 48 -22 72
-13 77 28 5 40 -69 82 -105 59z"/>
<path d="M3696 12954 c-30 -29 -14 -62 41 -83 43 -17 73 -1 73 39 0 25 -6 32
-36 45 -46 19 -59 19 -78 -1z"/>
<path d="M3900 12886 c-23 -29 -8 -60 38 -76 52 -18 77 -6 77 36 0 20 -7 32
-25 41 -33 17 -75 16 -90 -1z"/>
<path d="M4766 12874 c-42 -41 8 -91 68 -68 26 10 38 41 26 64 -13 25 -71 27
-94 4z"/>
<path d="M4117 12845 c-33 -32 -17 -63 39 -75 42 -10 84 7 84 33 0 45 -90 76
-123 42z"/>
<path d="M4585 12853 c-31 -8 -45 -23 -45 -49 0 -30 32 -47 73 -39 42 10 57
23 57 51 0 35 -33 49 -85 37z"/>
<path d="M4332 12828 c-31 -31 0 -78 52 -78 46 0 68 20 64 55 -3 28 -6 30 -53
33 -30 2 -55 -2 -63 -10z"/>
<path d="M16732 12364 c-12 -8 -22 -19 -22 -24 0 -4 -15 -23 -32 -42 -18 -19
-69 -79 -113 -133 -111 -139 -455 -481 -605 -601 -407 -325 -842 -566 -1309
-725 -79 -27 -150 -54 -158 -60 -29 -25 -12 -71 106 -286 319 -587 544 -1054
983 -2043 99 -223 200 -451 225 -507 54 -121 75 -147 112 -140 14 2 94 23 176
46 458 127 988 187 1452 162 248 -13 476 -40 687 -81 155 -31 178 -29 191 9
10 32 -16 73 -103 160 -97 97 -198 219 -189 228 4 3 62 15 129 25 144 22 163
34 153 92 -5 22 -31 66 -67 114 -63 81 -175 243 -184 266 -3 9 19 22 73 41 95
34 101 38 109 80 5 30 -2 44 -64 132 -71 100 -143 213 -199 314 l-32 57 58 78
c32 44 65 85 74 93 27 21 20 53 -25 122 -442 681 -773 1308 -1200 2269 -130
294 -171 370 -197 370 -4 0 -17 -7 -29 -16z m138 -434 c384 -867 669 -1415
1079 -2070 67 -106 118 -198 114 -204 -22 -36 -200 -265 -276 -355 -210 -246
-583 -593 -842 -782 -209 -152 -448 -302 -668 -419 -118 -62 -338 -163 -343
-157 -2 2 -118 260 -257 573 -140 313 -291 650 -336 749 -120 263 -493 1008
-619 1240 l-110 200 119 42 c723 254 1398 723 1897 1316 64 75 119 134 123
130 3 -5 57 -123 119 -263z m1141 -2637 c18 -32 70 -116 116 -186 47 -71 83
-130 81 -131 -1 -2 -64 -25 -138 -51 -176 -62 -471 -178 -635 -250 -206 -90
-215 -94 -215 -91 0 1 58 53 130 115 152 132 431 416 545 554 44 53 81 97 82
97 1 0 16 -26 34 -57z m93 -587 c21 -33 68 -101 103 -149 36 -48 64 -89 62
-91 -2 -1 -101 -17 -219 -35 -479 -73 -957 -167 -1275 -250 -82 -22 -151 -38
-152 -37 -5 4 168 98 362 196 303 153 604 286 920 406 124 47 141 52 150 38 6
-9 27 -44 49 -78z m-61 -458 c25 -35 73 -94 108 -132 59 -65 61 -68 34 -62
-64 13 -317 45 -445 57 -74 7 -268 13 -430 13 -171 0 -282 3 -265 8 102 28
876 174 942 177 6 1 31 -27 56 -61z"/>
<path d="M16680 11850 c0 -14 11 -22 41 -30 68 -18 95 6 39 35 -42 22 -80 20
-80 -5z"/>
<path d="M16627 11773 c-13 -12 -7 -23 23 -38 41 -21 70 -19 70 4 0 26 -75 53
-93 34z"/>
<path d="M16532 11303 c-319 -330 -778 -633 -1187 -783 -97 -36 -115 -46 -115
-64 0 -11 343 -662 355 -674 6 -6 172 67 340 149 323 160 646 384 933 649 60
55 82 82 82 100 0 36 -324 664 -345 668 -9 2 -36 -16 -63 -45z m217 -324 l152
-297 -88 -82 c-243 -228 -559 -450 -863 -607 -116 -59 -323 -153 -339 -153 -7
0 -237 424 -322 591 -6 12 13 23 104 59 242 95 507 242 743 411 110 79 331
267 409 348 21 22 42 38 46 33 4 -4 75 -140 158 -303z"/>
<path d="M16817 9884 c-126 -134 -357 -313 -551 -426 -38 -23 -46 -33 -46 -56
0 -33 27 -62 56 -62 24 0 193 102 294 178 114 85 237 191 318 275 76 79 88
109 54 140 -33 30 -59 20 -125 -49z"/>
<path d="M17631 9861 c-22 -14 -6 -38 30 -45 45 -9 61 9 30 35 -26 21 -39 23
-60 10z"/>
<path d="M17612 9760 c2 -17 14 -26 48 -36 56 -17 57 -17 64 1 7 19 -27 41
-77 51 -36 6 -39 5 -35 -16z"/>
<path d="M16922 9639 c-128 -123 -303 -255 -461 -349 -71 -42 -122 -79 -126
-91 -10 -30 20 -69 53 -69 54 0 285 146 467 295 114 94 255 236 255 257 0 27
-31 58 -58 58 -20 -1 -53 -26 -130 -101z"/>
<path d="M17060 9458 c-171 -164 -386 -331 -552 -430 -72 -43 -89 -69 -69
-107 22 -40 55 -37 138 15 195 121 374 260 546 424 121 116 135 140 101 174
-33 34 -65 19 -164 -76z"/>
<path d="M15590 9313 c-17 -21 -29 -47 -28 -58 4 -27 35 -31 42 -7 4 11 18 32
33 46 26 26 26 56 -1 56 -8 0 -29 -17 -46 -37z"/>
<path d="M15665 9244 c-38 -46 -58 -82 -50 -94 12 -19 34 -10 54 23 11 18 31
43 45 56 26 25 25 51 -3 51 -9 0 -30 -16 -46 -36z"/>
<path d="M1990 12112 c-8 -3 -28 -19 -44 -36 l-28 -31 5 -345 c12 -721 94
-1378 258 -2067 231 -976 644 -1971 1157 -2791 35 -57 63 -105 61 -106 -2 -2
-145 -72 -317 -154 -341 -164 -833 -416 -1142 -587 -277 -153 -320 -175 -335
-175 -20 0 -38 -37 -31 -64 3 -13 30 -35 68 -58 138 -80 320 -141 534 -180
117 -21 157 -23 429 -23 328 1 422 10 700 66 1114 226 2130 955 2860 2051 105
158 111 180 62 213 -22 14 -41 9 -288 -74 -721 -243 -1490 -544 -2207 -866
-95 -43 -175 -75 -178 -72 -4 3 6 63 21 133 90 429 290 882 553 1249 196 273
468 551 710 725 68 49 82 77 61 120 -11 22 -615 673 -1345 1450 -39 41 -395
422 -792 846 -397 424 -729 774 -739 776 -10 3 -25 3 -33 0z m1094 -1286 c185
-197 336 -361 336 -365 0 -3 -33 -44 -72 -91 -246 -293 -469 -639 -637 -991
-73 -152 -174 -401 -186 -457 -4 -19 -11 -30 -15 -25 -14 13 -133 417 -188
638 -63 247 -122 523 -122 565 0 47 90 308 165 477 133 302 333 626 377 611 4
-2 158 -164 342 -362z m1400 -1496 l294 -314 -47 -35 c-307 -230 -631 -595
-846 -952 -189 -313 -355 -733 -420 -1062 -10 -48 -19 -86 -20 -85 -23 26
-219 369 -329 575 l-85 162 34 117 c154 524 427 1062 763 1507 140 186 336
411 354 405 4 -2 140 -145 302 -318z m1410 -1907 c-714 -955 -1667 -1580
-2694 -1767 -233 -42 -341 -51 -610 -51 -219 1 -273 4 -380 23 -177 32 -245
52 -228 67 40 38 985 519 1443 735 689 324 1467 652 2150 905 143 53 276 102
295 110 52 21 55 18 24 -22z"/>
<path d="M2768 10618 c-18 -6 -28 -17 -28 -30 0 -17 5 -20 28 -15 50 10 82 26
82 42 0 17 -39 19 -82 3z"/>
<path d="M2785 10481 c-21 -4 -30 -12 -30 -26 0 -18 6 -20 65 -17 84 4 102 10
98 30 -2 13 -15 17 -53 19 -28 0 -63 -2 -80 -6z"/>
<path d="M2863 10357 c-45 -17 -71 -43 -55 -59 9 -9 21 -7 50 6 26 12 57 17
88 14 39 -2 49 0 52 14 2 12 -7 20 -35 27 -46 13 -59 13 -100 -2z"/>
<path d="M3954 9005 c-9 -22 11 -35 53 -35 62 0 54 36 -10 47 -29 4 -38 2 -43
-12z"/>
<path d="M3968 8874 c-28 -15 -36 -38 -19 -49 5 -3 26 2 46 12 29 14 42 15 65
6 24 -9 32 -8 42 4 30 37 -77 59 -134 27z"/>
<path d="M3962 8799 c-15 -5 -22 -15 -20 -26 3 -15 11 -17 48 -14 57 6 86 5
133 -4 33 -7 37 -5 37 13 0 16 -9 24 -37 31 -46 13 -130 13 -161 0z"/>
<path d="M4785 6920 c-8 -13 24 -60 41 -60 23 0 28 29 9 50 -20 22 -40 26 -50
10z"/>
<path d="M4650 6806 c0 -17 46 -56 66 -56 27 0 27 24 0 47 -30 26 -66 31 -66
9z"/>
<path d="M4600 6701 c0 -20 61 -51 100 -51 35 0 22 30 -22 50 -55 25 -78 25
-78 1z"/>
<path d="M3203 5943 c-4 -11 6 -27 31 -51 34 -31 40 -33 53 -19 14 14 12 19
-20 51 -40 40 -54 44 -64 19z"/>
<path d="M4182 10568 c-17 -17 -15 -49 4 -76 20 -29 50 -28 70 2 13 22 14 29
2 53 -15 31 -55 42 -76 21z"/>
<path d="M4258 10399 c-24 -13 -23 -46 2 -86 22 -36 49 -42 74 -17 20 19 20
27 0 67 -25 47 -43 56 -76 36z"/>
<path d="M4362 10218 c-19 -19 -14 -51 13 -81 29 -31 56 -34 80 -11 19 19 12
49 -18 82 -22 24 -56 29 -75 10z"/>
<path d="M4500 10061 c-16 -31 -12 -48 21 -75 33 -28 58 -33 77 -14 20 20 13
56 -15 83 -33 30 -68 32 -83 6z"/>
<path d="M5156 10004 c-22 -21 -20 -39 6 -64 38 -36 88 -21 88 26 0 25 -34 54
-62 54 -9 0 -24 -7 -32 -16z"/>
<path d="M4688 9953 c-20 -5 -32 -35 -24 -61 4 -10 22 -26 42 -35 45 -22 74
-9 74 33 0 24 -7 33 -37 48 -21 10 -46 17 -55 15z"/>
<path d="M5272 9918 c-30 -30 8 -98 54 -98 48 0 59 57 18 89 -30 24 -54 27
-72 9z"/>
<path d="M4850 9841 c-23 -44 43 -94 100 -76 14 4 20 15 20 34 0 36 -19 51
-69 58 -33 5 -41 2 -51 -16z"/>
<path d="M5392 9818 c-7 -7 -12 -26 -12 -43 0 -36 15 -55 45 -55 25 0 65 34
65 55 0 21 -40 55 -65 55 -11 0 -26 -5 -33 -12z"/>
<path d="M5050 9781 c-21 -40 12 -71 74 -71 46 0 65 30 41 66 -21 32 -98 35
-115 5z"/>
<path d="M5265 9773 c-10 -9 -15 -26 -12 -39 2 -15 -3 -30 -14 -40 -33 -30
-19 -84 22 -84 28 0 79 49 79 76 0 13 5 24 10 24 14 0 12 54 -2 68 -17 17 -64
15 -83 -5z"/>
<path d="M5092 9600 c-54 -51 4 -107 66 -64 26 18 28 46 6 68 -21 22 -46 20
-72 -4z"/>
<path d="M16302 7298 c-19 -25 -22 -54 -7 -74 8 -10 15 -27 15 -36 0 -29 22
-67 41 -73 10 -4 28 -1 40 5 18 10 20 17 14 48 -4 21 -8 51 -9 67 -2 47 -23
75 -55 75 -16 0 -33 -6 -39 -12z"/>
<path d="M16462 7118 c-20 -20 -14 -45 19 -83 34 -38 59 -44 83 -19 24 23 20
45 -15 82 -31 33 -66 41 -87 20z"/>
<path d="M16216 7078 c-37 -58 -28 -108 20 -108 39 0 79 85 54 115 -19 22 -57
18 -74 -7z"/>
<path d="M16390 7015 c-14 -17 -8 -79 11 -101 15 -18 53 -18 69 1 13 16 6 81
-12 103 -14 17 -53 15 -68 -3z"/>
<path d="M16646 6915 c-22 -22 -20 -39 7 -71 46 -53 112 -2 70 55 -24 31 -55
38 -77 16z"/>
<path d="M16129 6849 c-45 -45 1 -123 50 -81 31 27 35 58 12 81 -26 26 -36 26
-62 0z"/>
<path d="M16442 6798 c-15 -15 -16 -72 -2 -99 11 -19 35 -24 64 -13 19 7 22
74 6 105 -12 21 -50 25 -68 7z"/>
<path d="M16462 6578 c-7 -7 -12 -31 -12 -55 0 -34 5 -46 24 -58 19 -13 29
-14 45 -5 17 8 21 20 21 58 0 52 -12 72 -45 72 -12 0 -26 -5 -33 -12z"/>
<path d="M16462 6348 c-7 -7 -12 -30 -12 -53 0 -44 13 -65 41 -65 29 0 49 29
49 69 0 42 -14 61 -45 61 -12 0 -26 -5 -33 -12z"/>
<path d="M16435 6124 c-11 -12 -15 -30 -13 -63 3 -43 5 -46 33 -49 38 -5 55
19 55 74 0 29 -5 44 -16 48 -25 10 -42 7 -59 -10z"/>
<path d="M16394 5912 c-21 -13 -36 -79 -24 -102 12 -23 52 -27 69 -6 20 24 31
77 20 97 -10 19 -45 25 -65 11z"/>
<path d="M4714 5764 c-22 -33 -9 -78 24 -82 32 -5 52 15 52 52 0 58 -46 76
-76 30z"/>
<path d="M16316 5695 c-22 -22 -31 -82 -16 -100 7 -8 23 -15 36 -15 40 0 72
88 42 118 -16 16 -44 15 -62 -3z"/>
<path d="M4709 5569 c-12 -24 -3 -90 14 -101 22 -14 56 -8 67 11 11 21 3 78
-13 99 -15 19 -55 14 -68 -9z"/>
<path d="M16239 5503 c-25 -6 -53 -66 -45 -96 5 -22 12 -27 36 -27 23 0 35 8
50 33 11 17 19 40 18 51 -4 22 -37 44 -59 39z"/>
<path d="M4740 5355 c-14 -17 -8 -79 11 -101 15 -19 44 -18 64 2 17 17 12 76
-8 102 -13 17 -52 15 -67 -3z"/>
<path d="M9495 5314 c-340 -40 -603 -143 -825 -324 -256 -208 -256 -209 -550
-244 -175 -22 -288 -66 -421 -166 -126 -95 -234 -257 -246 -371 -14 -141 50
-230 253 -351 624 -370 1173 -510 2188 -557 l188 -9 32 -39 c328 -402 852
-803 1346 -1028 179 -83 254 -105 348 -105 68 0 88 4 133 28 102 53 144 143
121 262 -14 77 -153 399 -299 690 -67 134 -120 246 -119 248 2 1 50 10 107 18
224 33 530 126 773 235 l109 49 63 -60 c80 -75 166 -133 260 -176 96 -45 144
-45 186 -3 l31 30 -6 112 c-6 122 -36 289 -67 366 l-19 48 31 29 c50 48 199
224 279 329 138 182 347 513 407 643 56 123 -3 176 -258 236 -91 22 -224 20
-298 -2 -76 -24 -142 -68 -277 -187 -229 -201 -378 -295 -532 -337 -60 -16
-109 -21 -213 -22 -258 -1 -405 41 -1155 334 -632 247 -993 332 -1385 329 -85
-1 -168 -4 -185 -5z m540 -129 c254 -40 545 -127 969 -292 597 -231 729 -277
931 -321 152 -32 387 -37 499 -9 199 50 339 136 626 386 150 131 198 155 313
160 49 1 93 -1 98 -6 5 -5 -33 -64 -90 -141 -169 -226 -396 -579 -389 -607 2
-7 39 -37 83 -66 43 -30 81 -59 82 -65 2 -6 -34 -50 -79 -98 l-83 -88 -80 25
c-124 39 -195 50 -302 45 -117 -6 -177 -27 -199 -71 -25 -48 -12 -89 61 -189
37 -50 69 -96 71 -103 3 -7 -37 -29 -105 -58 -61 -26 -114 -47 -118 -47 -5 0
-14 14 -20 30 -11 29 -36 40 -48 20 -3 -5 0 -18 6 -28 12 -19 7 -52 -8 -52 -5
0 -15 19 -23 43 -26 75 -58 45 -36 -34 6 -21 4 -27 -11 -31 -10 -3 -70 -21
-133 -41 -63 -19 -131 -37 -151 -41 l-36 -6 -5 51 c-6 55 -30 91 -49 72 -9 -9
-9 -20 0 -44 17 -50 14 -86 -8 -92 -16 -4 -20 2 -25 42 -8 58 -35 121 -52 121
-22 0 -25 -16 -9 -54 8 -19 15 -55 15 -79 l0 -44 -46 -7 c-101 -13 -108 -11
-139 47 -54 102 -156 246 -202 287 -114 100 -300 158 -591 182 -337 28 -700
-58 -797 -190 -42 -56 -65 -127 -65 -197 0 -45 6 -59 45 -113 25 -34 45 -65
45 -68 0 -8 -259 3 -414 16 -104 9 -116 15 -116 61 0 15 -6 32 -14 38 -21 18
-36 -9 -29 -53 6 -37 5 -38 -18 -31 -34 11 -33 9 -35 83 -1 58 -4 67 -20 67
-17 0 -19 -8 -19 -73 0 -39 -1 -72 -2 -72 -1 0 -8 3 -17 6 -13 5 -16 24 -16
104 0 98 -9 125 -33 101 -7 -7 -11 -48 -11 -106 l0 -95 -30 5 c-17 3 -76 12
-131 21 -203 31 -491 101 -623 151 -40 15 -42 17 -26 34 17 19 12 39 -10 39
-7 0 -21 -9 -31 -20 -19 -21 -40 -26 -49 -12 -3 5 8 24 24 43 16 19 29 40 30
47 0 26 -36 11 -71 -29 l-35 -42 -100 43 c-171 73 -217 99 -208 118 25 60 68
188 81 247 22 98 22 336 0 435 -9 41 -13 77 -9 81 4 4 70 14 147 23 143 16
222 34 285 66 35 18 38 18 123 -5 285 -76 530 -10 615 166 32 66 30 169 -3
227 -17 30 -21 44 -12 47 55 19 152 37 312 59 66 9 426 -4 520 -19z m3582
-117 c41 -12 77 -27 80 -35 13 -32 -284 -503 -453 -716 -44 -56 -46 -58 -67
-43 -12 9 -48 32 -79 52 l-58 37 32 56 c91 162 445 671 466 671 2 0 38 -10 79
-22z m-5620 -524 c21 -75 28 -268 14 -365 -12 -80 -57 -233 -84 -285 l-13 -24
-118 67 c-199 113 -252 179 -227 279 34 135 160 271 326 350 38 19 74 33 79
31 6 -2 16 -26 23 -53z m4874 -583 c53 -17 101 -37 106 -44 12 -15 44 -107 37
-107 -3 0 -17 6 -32 14 -55 28 -197 56 -296 59 l-100 2 -34 47 -34 48 24 10
c12 5 70 8 128 6 84 -3 124 -10 201 -35z m-2053 -96 c296 -35 432 -97 532
-245 135 -200 441 -805 563 -1115 56 -142 55 -134 3 -124 -56 10 -259 92 -431
174 -247 117 -508 278 -710 440 -129 102 -351 323 -447 445 -104 132 -218 303
-218 328 0 24 235 91 370 105 85 9 215 6 338 -8z m1975 -50 c89 -16 219 -59
236 -79 10 -12 35 -204 29 -231 -3 -15 -14 -12 -79 22 -117 61 -190 122 -324
271 l-29 32 41 0 c22 0 79 -7 126 -15z m-2683 -170 c134 -218 413 -526 639
-704 206 -163 455 -317 707 -437 136 -65 451 -194 473 -194 21 0 8 -31 -21
-53 -42 -32 -130 -34 -215 -7 -99 32 -407 185 -559 276 -399 242 -767 573
-1048 943 -53 70 -86 123 -86 138 0 26 24 88 42 110 13 16 13 17 68 -72z"/>
<path d="M9514 4971 c-49 -12 -102 -49 -129 -89 -20 -30 -25 -49 -25 -102 1
-235 259 -352 418 -189 68 69 78 143 32 231 -58 113 -186 177 -296 149z"/>
<path d="M10115 4833 c-77 -40 -106 -92 -107 -188 -1 -76 33 -140 96 -182 42
-28 57 -33 110 -33 117 0 205 72 214 174 2 29 -1 71 -8 91 -16 50 -75 114
-125 136 -49 23 -139 24 -180 2z"/>
<path d="M10710 4671 c-43 -23 -69 -57 -80 -106 -18 -82 29 -183 102 -221 43
-22 139 -21 179 3 54 31 74 67 73 131 -1 154 -151 260 -274 193z"/>
<path d="M11306 4528 c-82 -45 -111 -86 -111 -158 0 -45 6 -65 27 -97 58 -87
139 -120 235 -94 158 43 178 251 33 347 -61 41 -113 41 -184 2z"/>
<path d="M11837 4436 c-51 -19 -73 -40 -93 -92 -27 -71 -2 -153 59 -189 45
-27 144 -31 186 -7 61 33 87 117 60 189 -15 42 -68 92 -109 103 -45 13 -57 12
-103 -4z"/>
<path d="M11777 3704 c-16 -16 -6 -35 16 -32 12 2 22 10 22 18 0 16 -26 25
-38 14z"/>
<path d="M9427 3623 c-12 -11 -7 -41 7 -46 19 -7 26 1 26 30 0 22 -19 31 -33
16z"/>
<path d="M13367 4734 c-13 -13 -7 -22 25 -38 37 -19 60 -7 42 22 -11 18 -55
28 -67 16z"/>
<path d="M13314 4685 c-9 -22 3 -32 49 -40 29 -6 37 -4 37 8 0 19 -18 34 -52
42 -21 5 -29 3 -34 -10z"/>
<path d="M11144 3205 c-8 -20 -4 -24 27 -27 18 -2 24 2 24 17 0 25 -42 34 -51
10z"/>
<path d="M11174 3119 c-39 -11 -62 -35 -46 -51 16 -16 102 20 102 43 0 21 -9
22 -56 8z"/>
<path d="M16090 5280 c-13 -18 -20 -41 -18 -57 2 -23 8 -29 34 -31 26 -3 36 3
53 26 34 49 25 92 -19 92 -20 0 -35 -9 -50 -30z"/>
<path d="M4790 5145 c-23 -27 14 -115 48 -115 30 0 45 17 44 50 -2 64 -59 105
-92 65z"/>
<path d="M15966 5119 c-41 -33 -50 -56 -31 -85 20 -31 36 -30 74 2 37 31 42
77 12 94 -25 13 -24 13 -55 -11z"/>
<path d="M15793 4949 c-35 -31 -41 -57 -21 -77 18 -18 46 -15 78 8 38 27 47
56 24 81 -24 27 -44 24 -81 -12z"/>
<path d="M4876 4944 c-21 -21 -20 -42 4 -82 16 -26 26 -33 47 -30 38 4 49 28
33 68 -24 59 -54 74 -84 44z"/>
<path d="M15626 4821 c-37 -24 -49 -46 -41 -71 12 -38 59 -34 108 8 23 20 22
59 -2 72 -26 14 -31 13 -65 -9z"/>
<path d="M4969 4737 c-16 -36 23 -97 62 -97 45 0 57 35 29 83 -27 45 -73 52
-91 14z"/>
<path d="M15423 4699 c-49 -31 -41 -89 12 -89 35 0 85 37 85 63 0 49 -43 61
-97 26z"/>
<path d="M15217 4604 c-23 -13 -28 -21 -25 -47 3 -27 8 -33 32 -35 63 -8 109
34 86 78 -13 24 -53 26 -93 4z"/>
<path d="M5102 4568 c-19 -19 -14 -44 14 -77 28 -34 54 -39 78 -15 22 22 20
38 -10 73 -27 32 -61 40 -82 19z"/>
<path d="M15010 4532 c-71 -35 -38 -99 41 -80 50 13 67 40 44 74 -18 29 -38
30 -85 6z"/>
<path d="M13901 4521 c-24 -24 -25 -31 -8 -54 18 -25 70 -32 90 -12 10 9 17
23 17 30 0 15 -27 45 -40 45 -5 0 -15 3 -23 6 -9 3 -25 -4 -36 -15z"/>
<path d="M14825 4493 c-56 -11 -64 -15 -70 -33 -3 -10 -1 -28 5 -40 23 -42
135 -14 128 32 -4 25 -36 46 -63 41z"/>
<path d="M14090 4475 c-22 -27 -4 -63 38 -74 20 -6 43 -11 49 -11 19 0 44 45
37 64 -13 34 -101 49 -124 21z"/>
<path d="M14573 4463 c-31 -6 -46 -29 -39 -58 7 -29 36 -38 86 -27 29 6 36 13
38 37 5 44 -22 60 -85 48z"/>
<path d="M14310 4441 c-20 -38 12 -71 69 -71 49 0 79 48 49 78 -7 7 -33 12
-60 12 -36 0 -50 -4 -58 -19z"/>
<path d="M5252 4408 c-21 -21 -13 -55 19 -82 35 -30 51 -32 73 -10 23 22 20
44 -11 76 -28 30 -61 36 -81 16z"/>
<path d="M5423 4273 c-7 -2 -13 -17 -13 -33 0 -50 76 -90 108 -58 42 42 -36
115 -95 91z"/>
<path d="M6362 4248 c-22 -22 -14 -57 18 -73 39 -20 68 -11 76 22 12 45 -61
84 -94 51z"/>
<path d="M6540 4176 c-21 -26 -8 -60 30 -78 44 -21 55 -22 74 -2 25 25 19 52
-16 74 -39 24 -71 26 -88 6z"/>
<path d="M5611 4154 c-38 -27 -19 -71 39 -91 36 -13 59 -5 66 23 12 48 -64 96
-105 68z"/>
<path d="M6742 4098 c-32 -32 -3 -78 60 -93 21 -5 30 -2 43 18 21 33 8 61 -36
76 -41 14 -52 14 -67 -1z"/>
<path d="M5802 4058 c-22 -22 -14 -57 18 -73 55 -29 100 -15 100 32 0 39 -89
70 -118 41z"/>
<path d="M6912 4009 c-40 -17 -43 -21 -40 -51 3 -32 5 -33 56 -38 72 -8 102
10 102 61 0 18 -8 29 -25 37 -33 15 -41 15 -93 -9z"/>
<path d="M6018 3999 c-19 -11 -23 -45 -9 -68 13 -21 94 -27 110 -7 21 25 6 65
-27 72 -15 3 -34 8 -42 10 -8 2 -23 -1 -32 -7z"/>
<path d="M6680 3957 c-56 -28 -26 -93 38 -81 46 8 62 21 62 48 0 44 -47 60
-100 33z"/>
<path d="M6220 3941 c-20 -38 12 -71 69 -71 31 0 61 22 61 45 0 44 -108 66
-130 26z"/>
<path d="M6440 3929 c-19 -34 11 -69 60 -69 37 0 70 19 70 41 0 6 -5 19 -10
30 -16 28 -105 27 -120 -2z"/>
<path d="M6764 3816 c-38 -38 -42 -57 -18 -80 24 -24 47 -19 82 17 33 34 40
65 20 85 -21 21 -49 13 -84 -22z"/>
<path d="M6586 3639 c-42 -33 -30 -89 19 -89 25 0 65 39 65 63 0 14 -35 47
-51 47 -3 0 -18 -9 -33 -21z"/>
<path d="M10555 1201 c-3 -6 -1 -19 5 -30 14 -27 13 -41 -4 -41 -31 0 -66 -19
-60 -34 4 -12 12 -12 52 1 26 7 67 13 92 11 34 -2 45 1 45 12 0 10 -13 16 -42
18 -41 3 -43 4 -40 35 2 26 -2 33 -20 35 -11 2 -24 -2 -28 -7z"/>
<path d="M10778 1079 c-2 -6 15 -30 37 -52 22 -23 45 -51 51 -62 9 -15 15 -17
24 -9 9 9 8 18 -6 39 -18 28 -18 28 4 43 12 8 22 20 22 27 0 22 -30 26 -47 5
-16 -19 -17 -19 -44 1 -31 22 -36 23 -41 8z"/>
<path d="M10560 1071 c-114 -37 -187 -139 -178 -246 3 -39 5 -40 53 -53 63
-17 240 -10 311 12 28 9 66 26 85 39 28 20 34 29 31 56 -5 68 -59 138 -135
177 -35 19 -131 27 -167 15z m40 -141 c26 -48 -9 -110 -61 -110 -81 0 -101
112 -24 140 26 9 73 -7 85 -30z m165 10 c15 -16 17 -26 9 -47 -13 -37 -47 -47
-78 -22 -30 24 -32 36 -10 67 19 28 55 28 79 2z"/>
<path d="M11142 1073 c-20 -8 -42 -59 -42 -98 0 -32 -2 -35 -30 -35 -28 0 -30
-3 -30 -35 0 -32 2 -35 30 -35 l30 0 0 -110 0 -110 35 0 34 0 3 108 3 107 43
3 c41 3 42 4 42 38 0 34 0 34 -45 34 -48 0 -56 11 -35 51 8 13 21 19 45 19 33
0 35 2 35 35 l0 35 -52 -1 c-29 0 -59 -3 -66 -6z"/>
<path d="M12444 1072 c-50 -34 2 -111 56 -82 23 12 28 58 8 78 -13 13 -47 16
-64 4z"/>
<path d="M12560 865 l0 -215 40 0 40 0 0 58 1 57 54 -58 c54 -57 56 -58 103
-55 l47 3 -69 73 -70 73 69 69 69 70 -49 0 c-46 0 -53 -3 -102 -52 l-53 -52 0
122 0 122 -40 0 -40 0 0 -215z"/>
<path d="M10380 1020 c-21 -30 -23 -30 -41 -14 -18 16 -21 16 -35 2 -19 -19
-11 -38 17 -38 22 0 22 -3 10 -48 -8 -27 -7 -32 8 -32 12 0 22 13 30 40 6 21
23 52 36 68 21 25 23 32 11 41 -11 9 -19 5 -36 -19z"/>
<path d="M7380 969 l0 -70 -26 20 c-18 14 -41 21 -73 21 -81 0 -121 -48 -121
-145 0 -97 40 -145 121 -145 32 0 55 7 73 21 l26 20 0 -20 c0 -14 6 -21 20
-21 19 0 20 7 20 195 0 188 -1 195 -20 195 -18 0 -20 -7 -20 -71z m-26 -90
c23 -18 26 -27 26 -84 0 -57 -3 -66 -26 -84 -38 -30 -94 -28 -125 5 -19 20
-24 36 -24 79 0 43 5 59 24 79 31 33 87 35 125 5z"/>
<path d="M8072 1031 c-21 -13 -10 -46 16 -49 27 -4 40 22 22 43 -14 17 -20 18
-38 6z"/>
<path d="M9330 974 l0 -66 -25 16 c-13 9 -45 16 -71 16 -61 0 -109 -44 -119
-111 -19 -130 80 -218 185 -164 25 13 29 13 34 0 3 -8 15 -15 26 -15 19 0 20
6 20 195 l0 195 -25 0 c-24 0 -25 -2 -25 -66z m-22 -90 c19 -13 22 -24 22 -89
0 -65 -3 -76 -22 -89 -66 -46 -148 4 -148 89 0 61 37 105 89 105 20 0 47 -7
59 -16z"/>
<path d="M9590 845 c0 -188 1 -195 20 -195 14 0 20 7 20 21 l0 20 26 -20 c18
-14 41 -21 71 -21 81 0 123 49 123 145 0 97 -40 145 -121 145 -32 0 -55 -7
-73 -21 l-26 -20 0 70 c0 64 -2 71 -20 71 -19 0 -20 -7 -20 -195z m177 40 c33
-23 48 -83 33 -129 -21 -65 -91 -87 -144 -45 -23 18 -26 27 -26 84 0 57 3 66
26 84 31 25 81 27 111 6z"/>
<path d="M11403 935 c-18 -8 -33 -10 -33 -5 0 6 -18 10 -40 10 l-40 0 0 -145
0 -145 40 0 40 0 0 88 c0 101 14 132 58 132 20 0 33 8 46 31 10 17 16 32 14
34 -12 12 -58 12 -85 0z"/>
<path d="M11565 935 c-22 -8 -41 -15 -42 -15 -1 0 -10 -15 -21 -32 -28 -47
-35 -90 -22 -138 22 -81 100 -122 191 -100 64 16 79 34 51 62 -18 19 -25 20
-47 10 -14 -7 -36 -12 -48 -12 -28 0 -67 26 -67 46 0 11 20 14 101 14 l102 0
-7 47 c-3 26 -13 57 -21 70 -34 52 -105 72 -170 48z m95 -75 c32 -32 24 -40
-40 -40 -66 0 -79 15 -38 44 30 21 54 20 78 -4z"/>
<path d="M11885 943 c-104 -28 -141 -177 -63 -260 43 -46 156 -51 213 -9 20
14 20 15 -3 39 -22 23 -26 24 -50 11 -39 -20 -76 -17 -100 9 -12 13 -22 26
-22 30 0 4 45 7 100 7 l100 0 0 40 c0 77 -41 122 -120 133 -19 3 -44 3 -55 0z
m77 -80 c34 -31 23 -43 -42 -43 -33 0 -60 4 -60 8 0 17 42 52 62 52 12 0 30
-7 40 -17z"/>
<path d="M12210 934 c-22 -10 -36 -11 -38 -4 -2 5 -19 10 -38 10 l-34 0 0
-206 0 -205 38 3 37 3 3 67 3 67 35 -15 c66 -28 134 1 165 69 23 52 24 85 3
137 -29 71 -106 105 -174 74z m89 -90 c12 -15 21 -37 21 -49 0 -38 -37 -75
-75 -75 -38 0 -75 37 -75 75 0 38 37 75 75 75 24 0 39 -7 54 -26z"/>
<path d="M7537 919 c-82 -62 -75 -208 12 -254 60 -30 192 -7 177 31 -3 9 -6
18 -6 21 0 3 -12 -3 -27 -12 -58 -38 -140 -16 -161 44 l-11 31 115 0 114 0 0
30 c0 39 -22 82 -56 109 -37 29 -118 28 -157 0z m112 -20 c32 -11 67 -61 56
-79 -3 -6 -44 -10 -91 -10 -74 0 -84 2 -84 18 0 24 28 62 54 72 28 12 28 12
65 -1z"/>
<path d="M7816 917 c-53 -53 -20 -114 71 -136 63 -15 89 -40 74 -69 -17 -32
-65 -37 -113 -13 -43 21 -58 20 -58 -4 0 -39 123 -59 179 -30 30 15 41 33 41
69 0 40 -28 65 -100 86 -62 19 -70 24 -70 46 0 39 41 52 98 31 53 -18 78 -8
49 20 -11 11 -38 18 -81 21 -59 4 -67 2 -90 -21z"/>
<path d="M8070 795 c0 -138 1 -145 20 -145 19 0 20 7 20 145 0 138 -1 145 -20
145 -19 0 -20 -7 -20 -145z"/>
<path d="M8222 924 c-50 -35 -69 -140 -37 -208 30 -64 110 -84 174 -45 l34 20
-6 -38 c-4 -21 -16 -46 -28 -55 -27 -22 -97 -24 -127 -2 -24 16 -42 12 -42
-11 0 -27 59 -47 123 -43 52 4 64 9 88 36 l29 32 0 165 c0 158 -1 165 -20 165
-14 0 -20 -7 -20 -21 l0 -20 -26 20 c-33 26 -109 28 -142 5z m142 -45 c23 -18
26 -27 26 -83 0 -72 -15 -93 -74 -103 -49 -8 -82 16 -96 68 -28 103 65 180
144 118z"/>
<path d="M8510 795 c0 -138 1 -145 20 -145 19 0 20 7 20 109 0 106 1 109 26
125 15 11 40 16 62 14 51 -4 62 -30 62 -150 0 -91 1 -98 20 -98 19 0 20 7 20
116 0 154 -10 174 -91 174 -32 0 -55 -6 -73 -21 l-26 -20 0 20 c0 14 -6 21
-20 21 -19 0 -20 -7 -20 -145z"/>
<path d="M8857 919 c-82 -62 -75 -208 12 -254 60 -30 192 -7 177 31 -3 9 -6
18 -6 21 0 3 -12 -3 -27 -12 -58 -38 -140 -16 -161 44 l-11 31 115 0 114 0 0
30 c0 39 -22 82 -56 109 -37 29 -118 28 -157 0z m118 -21 c28 -13 60 -62 50
-78 -3 -6 -44 -10 -91 -10 -74 0 -84 2 -84 18 0 36 46 79 87 81 7 1 24 -4 38
-11z"/>
<path d="M9876 918 c3 -12 28 -74 55 -137 27 -63 49 -121 49 -129 0 -31 -31
-72 -54 -72 -15 0 -26 -7 -29 -20 -4 -17 0 -20 28 -20 55 0 77 31 154 217 39
95 71 175 71 178 0 3 -10 5 -23 5 -20 0 -29 -14 -68 -110 -24 -60 -47 -110
-50 -110 -3 0 -25 50 -49 110 -38 98 -46 110 -67 110 -20 0 -23 -4 -17 -22z"/>
<path d="M12440 795 l0 -145 35 0 35 0 0 145 0 145 -35 0 -35 0 0 -145z"/>
<path d="M10806 778 c-82 -41 -263 -61 -358 -39 -44 10 -45 9 -19 -28 26 -36
105 -78 163 -86 100 -15 225 55 256 143 13 37 11 37 -42 10z"/>
</g>
</svg>
