<svg width="96" height="98" xmlns="http://www.w3.org/2000/svg" xmlns:xlink="http://www.w3.org/1999/xlink" xml:space="preserve" overflow="hidden"><g transform="translate(-264 -418)"><g><g><g><g><path d="M315.299 480.586 316.14 482.586 323.207 482.586 338.901 467.815C339.483 467.275 340.254 466.983 341.048 467.001 341.844 467.023 342.598 467.363 343.142 467.944L343.827 468.672 324.793 486.586 317.822 486.586 318.663 488.586 325.586 488.586 346.653 468.758 344.591 466.566C344.089 466.023 343.469 465.601 342.779 465.334 340.977 464.64 338.938 465.039 337.53 466.359L322.414 480.586Z" fill="#000000" fill-rule="nonzero" fill-opacity="1"/><path d="M277 482.586 309.631 482.586 308.79 480.586 277 480.586C274.239 480.586 272 482.825 272 485.586L272 488.586 312.154 488.586 311.313 486.586 274 486.586 274 485.586C274 483.93 275.343 482.586 277 482.586Z" fill="#000000" fill-rule="nonzero" fill-opacity="1"/><path d="M272 490.586 272 492.586 280.608 492.586 278.204 503 280.257 503 282.661 492.586 313.836 492.586 312.995 490.586 272 490.586Z" fill="#000000" fill-rule="nonzero" fill-opacity="1"/><path d="M355 490.586 352.346 490.586 339.883 480.794 345.686 475.314 344.314 473.859 326.603 490.586 319.504 490.586 320.345 492.586 344.339 492.586 346.743 503 348.796 503 346.392 492.586 355 492.586ZM329.515 490.586 338.413 482.183 349.086 490.569C349.098 490.579 349.096 490.586 349.08 490.586Z" fill="#000000" fill-rule="nonzero" fill-opacity="1"/><path d="M302.196 428.018C298.682 428.168 295.219 428.913 291.954 430.222L290.908 427.735C290.694 427.226 290.108 426.987 289.599 427.201 289.09 427.415 288.85 428.001 289.065 428.51L290.11 430.995C286.853 432.417 283.863 434.386 281.27 436.818 272.817 444.885 269.401 457.039 273.391 468.112 274.601 466.328 276.347 464.974 278.376 464.245 279.844 463.59 281.425 463.225 283.032 463.17 283.597 463.159 284.16 463.242 284.698 463.417 285.35 462.021 287.275 460.562 289.712 459.479 291.18 458.823 292.761 458.458 294.368 458.404 294.933 458.393 295.496 458.476 296.034 458.65 296.501 457.817 297.144 457.095 297.919 456.536 298.552 456.047 299.246 455.643 299.985 455.336L300.289 455.208 322.066 507 324.236 507 302.133 454.433 302.322 454.353C303.258 453.953 304.254 453.711 305.269 453.635 305.479 453.62 305.681 453.613 305.876 453.613 306.391 453.602 306.904 453.669 307.399 453.812 308.052 452.416 309.976 450.958 312.413 449.874 313.882 449.219 315.463 448.854 317.07 448.8 317.635 448.789 318.198 448.872 318.736 449.047 319.388 447.651 321.313 446.192 323.75 445.108 325.242 444.46 326.845 444.106 328.471 444.064 328.987 444.056 329.502 444.118 330 444.251 325.093 434.005 314.55 428.001 303.278 428ZM303.278 430C312.621 429.832 321.405 434.44 326.578 442.223 325.327 442.43 324.104 442.785 322.937 443.281 321.336 443.969 319.855 444.908 318.55 446.062 314.407 437.908 307.733 431.937 300.837 430.129 300.807 430.121 300.807 430.112 300.838 430.11 301.315 430.067 301.79 430.033 302.263 430.017ZM316.698 446.823C314.939 446.924 313.213 447.338 311.601 448.047 310.016 448.73 308.547 449.658 307.25 450.797 303.165 441.702 298.527 434.478 294.961 431.708 296.083 431.534 297.225 431.518 298.351 431.66 305.331 432.554 312.398 438.443 316.697 446.823ZM277.601 462.401C276.448 462.88 275.357 463.492 274.347 464.225 272.404 454.716 275.549 444.881 282.651 438.264 283.036 437.896 283.458 437.554 283.872 437.208 283.895 437.189 283.902 437.194 283.887 437.22 280.325 443.429 279.917 452.444 282.864 461.18 281.049 461.254 279.263 461.668 277.601 462.401ZM288.899 457.651C287.365 458.314 285.939 459.204 284.669 460.291 281.714 451.334 282.458 442.163 286.693 436.562 287.374 435.663 288.177 434.863 289.078 434.186 288.565 438.681 290.494 447.088 294.153 456.417 292.34 456.499 290.559 456.917 288.899 457.651ZM296.539 455.078C296.335 455.242 296.153 455.409 295.971 455.576 292.477 446.63 290.566 438.401 291.073 434.322 291.191 433.371 291.465 432.759 291.897 432.578 292.276 432.42 292.906 432.65 293.668 433.231 296.946 435.728 301.493 442.865 305.43 451.627 305.366 451.63 305.306 451.629 305.24 451.633 303.92 451.726 302.625 452.042 301.411 452.567L299.356 453.431C298.345 453.846 297.397 454.4 296.539 455.078Z" fill="#000000" fill-rule="nonzero" fill-opacity="1"/></g></g></g></g></g></svg>