<svg width="97" height="96" xmlns="http://www.w3.org/2000/svg" xmlns:xlink="http://www.w3.org/1999/xlink" xml:space="preserve" overflow="hidden"><g transform="translate(-649 -488)"><g><g><g><g><path d="M671.7 538.711 671.7 544 678.053 544 678.053 538.711 687.019 538.711 681.364 526.893 684.764 526.893 674.88 503.427 664.971 526.893 668.371 526.893 662.715 538.711ZM673.7 542 673.7 538.711 676.053 538.711 676.053 542ZM667.986 524.893 674.878 508.573 681.752 524.893 678.189 524.893 683.848 536.711 665.89 536.711 671.549 524.893Z" fill="#000000" fill-rule="nonzero" fill-opacity="1"/><path d="M737.184 511.979 739.55 511.979 732.156 494.427 724.744 511.979 727.111 511.979 723.134 520.284 729.625 520.284 729.625 524 734.685 524 734.685 520.284 741.16 520.284ZM731.625 522 731.625 520.284 732.685 520.284 732.685 522ZM733.685 518.284 726.309 518.284 730.286 509.984 727.759 509.984 732.154 499.578 736.537 509.984 734.009 509.984 737.985 518.289Z" fill="#000000" fill-rule="nonzero" fill-opacity="1"/><path d="M698.706 544.605C693.955 547.767 689.041 550.678 683.985 553.326 674.639 558.491 664.066 564.339 655.873 571L659.108 571C666.857 565.083 676.42 559.792 684.953 555.076 690.079 552.392 695.06 549.438 699.875 546.228 704.946 542.57 707.52 539.309 707.975 535.967 708.32 533.437 707.412 530.867 705.2 528.097 703.588 526.121 701.781 524.312 699.806 522.697 698.438 521.708 697.282 520.456 696.406 519.013 695.934 518.234 695.944 517.254 696.432 516.485 697.906 514.17 703.1 512.972 705.4 513L706.145 513C704.677 514.207 703.157 515.851 703.095 517.524 703.076 518.68 703.69 519.753 704.695 520.324 707.101 521.952 711.639 524.343 715.642 526.452 718.374 527.892 720.955 529.252 721.7 529.782 721.926 529.943 722.2 530.122 722.5 530.319 725.645 532.4 731.5 536.274 725.987 545.834 720.924 554.616 716.194 561.534 712.393 567.097 711.435 568.497 710.555 569.789 709.743 570.997L712.155 570.997C712.755 570.113 713.376 569.197 714.045 568.222 717.864 562.633 722.618 555.678 727.72 546.83 734.173 535.64 726.766 530.74 723.604 528.647 723.325 528.463 723.075 528.298 722.864 528.147 722.01 527.539 719.614 526.276 716.579 524.678 712.818 522.696 708.135 520.229 705.821 518.663 705.081 518.163 705.096 517.75 705.102 517.595 705.154 516.18 707.902 513.976 709.841 512.864L713.086 511 705.417 511C702.824 510.979 696.751 512.258 694.746 515.418 693.888 516.774 693.837 518.49 694.612 519.895 695.597 521.591 696.923 523.064 698.506 524.222 700.386 525.752 702.106 527.469 703.639 529.346 705.517 531.693 706.265 533.711 705.994 535.697 705.623 538.421 703.238 541.335 698.706 544.605Z" fill="#000000" fill-rule="nonzero" fill-opacity="1"/></g></g></g></g></g></svg>