<svg width="96" height="97" xmlns="http://www.w3.org/2000/svg" xmlns:xlink="http://www.w3.org/1999/xlink" xml:space="preserve" overflow="hidden"><g transform="translate(-508 -376)"><g><g><g><g><path d="M575.505 418C573.752 418 572.01 418.272 570.341 418.807L568.732 414.947C567.634 412.324 567.389 409.423 568.032 406.653L569.012 402.409C569.56 400.033 568.078 397.661 565.702 397.113 565.377 397.038 565.045 397 564.711 397L561.821 397C561.401 395.804 560.273 395.003 559.005 395L552.005 395C550.348 395 549.005 396.343 549.005 398 549.005 399.657 550.348 401 552.005 401L559.005 401C560.273 400.997 561.401 400.196 561.821 399L564.711 399C566.045 399 567.126 400.081 567.126 401.415 567.126 401.598 567.105 401.78 567.064 401.958L566.085 406.2C565.638 408.129 565.564 410.127 565.868 412.084 557.692 414.029 550.031 417.712 543.407 422.884L538.4 416.452 542.848 416.452C544.592 416.455 546.007 415.043 546.01 413.3 546.012 411.743 544.879 410.417 543.341 410.176L529.89 408.052C527.585 407.687 525.42 409.26 525.055 411.565 524.69 413.87 526.263 416.035 528.568 416.4 528.787 416.435 529.008 416.452 529.23 416.452L535.867 416.452 541.855 424.152C539.638 426.02 537.568 428.055 535.662 430.239 529.956 427.373 523.007 429.675 520.14 435.381 517.274 441.087 519.576 448.036 525.282 450.902 530.988 453.769 537.937 451.467 540.804 445.761 543.322 440.748 541.879 434.652 537.381 431.3 544.998 422.681 555.103 416.638 566.3 414.005 566.463 414.586 566.66 415.158 566.889 415.716L568.481 419.538C559.96 423.436 556.212 433.505 560.111 442.026 564.009 450.547 574.077 454.294 582.599 450.396 591.12 446.497 594.867 436.429 590.969 427.908 588.202 421.86 582.156 417.986 575.505 418ZM559.005 399 552.005 399C551.453 399 551.005 398.552 551.005 398 551.005 397.448 551.453 397 552.005 397L559.005 397C559.557 397 560.005 397.448 560.005 398 560.005 398.552 559.557 399 559.005 399ZM540.005 440.5C540.021 445.763 535.768 450.042 530.505 450.058 525.242 450.074 520.963 445.82 520.947 440.558 520.931 435.295 525.185 431.016 530.447 431 531.816 430.996 533.17 431.287 534.417 431.853 533.223 433.531 532.116 435.269 531.1 437.06 529.189 436.726 527.37 438.005 527.036 439.916 526.703 441.826 527.981 443.646 529.892 443.979 531.802 444.313 533.622 443.034 533.956 441.124 534.16 439.955 533.76 438.762 532.892 437.952 533.851 436.202 535.319 434.052 536.147 432.873 538.571 434.659 540.003 437.489 540.005 440.5ZM532.005 440.5C532.005 441.328 531.333 442 530.505 442 529.677 442 529.005 441.328 529.005 440.5 529.005 439.672 529.677 439 530.505 439 531.333 439 532.005 439.672 532.005 440.5ZM527.005 412.226C527.004 410.997 528 410.001 529.229 410 529.346 410 529.462 410.009 529.577 410.028L543.028 412.152C543.659 412.251 544.091 412.843 543.992 413.474 543.903 414.038 543.418 414.452 542.848 414.452L529.23 414.452C528.002 414.45 527.006 413.454 527.005 412.226ZM575.505 450C567.227 450.007 560.511 443.301 560.504 435.023 560.5 429.158 563.916 423.829 569.248 421.385L573.105 430.641C570.719 431.988 569.877 435.014 571.224 437.4 572.572 439.786 575.598 440.628 577.984 439.281 580.37 437.934 581.211 434.907 579.864 432.521 578.977 430.951 577.308 429.986 575.505 430 575.344 430.008 575.184 430.025 575.025 430.049L571.112 420.659C579.032 418.23 587.422 422.682 589.85 430.603 592.279 438.523 587.827 446.913 579.906 449.341 578.48 449.778 576.997 450 575.505 450ZM578.505 435C578.505 436.657 577.162 438 575.505 438 573.848 438 572.505 436.657 572.505 435 572.505 433.343 573.848 432 575.505 432 577.162 432 578.505 433.343 578.505 435Z" fill="#000000" fill-rule="nonzero" fill-opacity="1"/></g></g></g></g></g></svg>