<svg width="97" height="97" xmlns="http://www.w3.org/2000/svg" xmlns:xlink="http://www.w3.org/1999/xlink" xml:space="preserve" overflow="hidden"><g transform="translate(-449 -56)"><g><g><g><g><path d="M493.5 104.7 494.5 104.7C495.2 104.7 495.8 105.3 495.8 106L495.8 107C495.8 107.7 495.2 108.3 494.5 108.3L493.5 108.3C492.8 108.3 492.2 107.7 492.2 107L492.2 106C492.3 105.3 492.8 104.7 493.5 104.7Z" fill="#000000" fill-rule="nonzero" fill-opacity="1"/><path d="M477.5 104.7 478.5 104.7C479.2 104.7 479.8 105.3 479.8 106L479.8 107C479.8 107.7 479.2 108.3 478.5 108.3L477.5 108.3C476.8 108.3 476.2 107.7 476.2 107L476.2 106C476.3 105.3 476.8 104.7 477.5 104.7Z" fill="#000000" fill-rule="nonzero" fill-opacity="1"/><path d="M469.5 104.7 470.5 104.7C471.2 104.7 471.8 105.3 471.8 106L471.8 107C471.8 107.7 471.2 108.3 470.5 108.3L469.5 108.3C468.8 108.3 468.2 107.7 468.2 107L468.2 106C468.3 105.3 468.8 104.7 469.5 104.7Z" fill="#000000" fill-rule="nonzero" fill-opacity="1"/><path d="M485.5 104.7 486.5 104.7C487.2 104.7 487.8 105.3 487.8 106L487.8 107C487.8 107.7 487.2 108.3 486.5 108.3L485.5 108.3C484.8 108.3 484.2 107.7 484.2 107L484.2 106C484.3 105.3 484.8 104.7 485.5 104.7Z" fill="#000000" fill-rule="nonzero" fill-opacity="1"/><path d="M509.5 104.7 510.5 104.7C511.2 104.7 511.8 105.3 511.8 106L511.8 107C511.8 107.7 511.2 108.3 510.5 108.3L509.5 108.3C508.8 108.3 508.2 107.7 508.2 107L508.2 106C508.3 105.3 508.8 104.7 509.5 104.7Z" fill="#000000" fill-rule="nonzero" fill-opacity="1"/><path d="M501.5 104.7 502.5 104.7C503.2 104.7 503.8 105.3 503.8 106L503.8 107C503.8 107.7 503.2 108.3 502.5 108.3L501.5 108.3C500.8 108.3 500.2 107.7 500.2 107L500.2 106C500.3 105.3 500.8 104.7 501.5 104.7Z" fill="#000000" fill-rule="nonzero" fill-opacity="1"/><path d="M517.5 104.7 518.5 104.7C519.2 104.7 519.8 105.3 519.8 106L519.8 107C519.8 107.7 519.2 108.3 518.5 108.3L517.5 108.3C516.8 108.3 516.2 107.7 516.2 107L516.2 106C516.3 105.3 516.8 104.7 517.5 104.7Z" fill="#000000" fill-rule="nonzero" fill-opacity="1"/><path d="M464.3 124 467.6 124C468.1 124 468.4 123.6 468.4 123.2L468.4 119.9C468.4 119.4 468 119.1 467.6 119.1L464.3 119.1C463.8 119.1 463.5 119.5 463.5 119.9L463.5 123.2C463.5 123.6 463.9 124 464.3 124 464.3 124 464.3 124 464.3 124Z" fill="#000000" fill-rule="nonzero" fill-opacity="1"/><path d="M486.3 124 489.6 124C490.1 124 490.4 123.6 490.4 123.2L490.4 119.9C490.4 119.4 490 119.1 489.6 119.1L486.3 119.1C485.8 119.1 485.5 119.5 485.5 119.9L485.5 123.2C485.5 123.6 485.9 124 486.3 124Z" fill="#000000" fill-rule="nonzero" fill-opacity="1"/><path d="M475.3 124 478.6 124C479.1 124 479.4 123.6 479.4 123.2L479.4 119.9C479.4 119.4 479 119.1 478.6 119.1L475.3 119.1C474.8 119.1 474.5 119.5 474.5 119.9L474.5 123.2C474.5 123.6 474.9 124 475.3 124Z" fill="#000000" fill-rule="nonzero" fill-opacity="1"/><path d="M519.3 124 522.6 124C523.1 124 523.4 123.6 523.4 123.2L523.4 119.9C523.4 119.4 523 119.1 522.6 119.1L519.3 119.1C518.8 119.1 518.5 119.5 518.5 119.9L518.5 123.2C518.5 123.6 518.9 124 519.3 124Z" fill="#000000" fill-rule="nonzero" fill-opacity="1"/><path d="M497.3 124 500.6 124C501.1 124 501.4 123.6 501.4 123.2L501.4 119.9C501.4 119.4 501 119.1 500.6 119.1L497.3 119.1C496.8 119.1 496.5 119.5 496.5 119.9L496.5 123.2C496.5 123.6 496.9 124 497.3 124Z" fill="#000000" fill-rule="nonzero" fill-opacity="1"/><path d="M508.3 124 511.6 124C512.1 124 512.4 123.6 512.4 123.2L512.4 119.9C512.4 119.4 512 119.1 511.6 119.1L508.3 119.1C507.8 119.1 507.5 119.5 507.5 119.9L507.5 123.2C507.5 123.6 507.9 124 508.3 124Z" fill="#000000" fill-rule="nonzero" fill-opacity="1"/><path d="M456 130.2C456.1 131.2 456.8 131.9 457.8 132L525.5 132C526 132 526.4 131.8 526.8 131.5L543.5 115.1C544.2 114.4 544.2 113.3 543.5 112.6 543.2 112.3 542.7 112.1 542.2 112.1L532.6 112.1 526.2 101.3C525.7 100.4 524.9 100 524 100L522.5 100 518.1 93.4C517.5 92.6 516.6 92 515.6 92L493.5 92 488 77.3C487.7 76.5 486.9 75.9 486 75.9L475.5 75.9 475.5 91.9 467.5 91.9C465.8 91.9 464.5 93.2 464.5 94.9L464.5 99.9 464 99.9C462.6 99.9 461.5 101 461.5 102.4L461.5 112 453.8 112C452.8 112 452 112.8 452 113.8L456 130.2ZM486 78 487.6 82 477.5 82 477.5 78 486 78ZM488.4 84 491.4 92 477.5 92 477.5 84 488.4 84ZM515.7 94C516 94 516.4 94.2 516.5 94.5L520.9 101.1 521.5 102 524 102C524.2 102 524.3 102.1 524.4 102.2L530.2 112 463.5 111.9 463.5 102.4C463.5 102.1 463.7 101.9 464 101.9L466.5 101.9 466.5 94.9C466.5 94.3 466.9 93.9 467.5 93.9L515.7 93.9ZM457.9 129.7 454.1 114C454.1 114 454.1 114 454.1 114 454.1 114 454.1 114 454.1 114L541.6 114C541.6 114 541.6 114 541.6 114 541.6 114 541.6 114 541.6 114L525.4 130 458 130 457.9 129.7Z" fill="#000000" fill-rule="nonzero" fill-opacity="1"/></g></g></g></g></g></svg>