<svg width="96" height="97" xmlns="http://www.w3.org/2000/svg" xmlns:xlink="http://www.w3.org/1999/xlink" xml:space="preserve" overflow="hidden"><g transform="translate(-996 -56)"><g><g><g><g><path d="M1068 110C1063.03 110 1059 114.029 1059 119 1059 123.971 1063.03 128 1068 128 1072.97 128 1077 123.971 1077 119 1076.99 114.032 1072.97 110.005 1068 110ZM1068 126C1064.13 126 1061 122.866 1061 119 1061 115.134 1064.13 112 1068 112 1071.87 112 1075 115.134 1075 119 1075 122.866 1071.87 126 1068 126Z" fill="#000000" fill-rule="nonzero" fill-opacity="1"/><path d="M1030.81 117.017C1030.93 117.671 1031 118.335 1031 119L1031 119.017 1057.01 119.017 1057.01 119C1057.01 118.335 1057.07 117.671 1057.19 117.017Z" fill="#000000" fill-rule="nonzero" fill-opacity="1"/><path d="M1078 101C1082.42 101 1086 104.582 1086 109L1086 115.016C1086 116.121 1085.1 117.016 1084 117.016L1078.81 117.016C1078.94 117.67 1079 118.334 1079 119L1079 119.017 1084 119.017C1086.21 119.01 1087.99 117.223 1088 115.017L1088 109.017C1087.98 103.494 1083.51 99.0192 1077.99 99L1069.7 99C1068.64 99.0342 1067.61 98.5994 1066.9 97.811L1054.3 85.311C1052.79 83.8087 1050.73 82.9796 1048.6 83.011L1032.04 83.011C1032.02 83.011 1032.01 83.004 1032 83.004 1031.99 83.004 1031.98 83.011 1031.96 83.011L1019.3 83.011C1017.17 82.999 1015.12 83.8252 1013.6 85.311L1001.2 97.811C1000.42 98.5744 999.989 99.6214 1000 100.711L1000 111.011C1000.01 115.423 1003.59 118.997 1008 119.011L1009 119.011 1009 119C1009 118.335 1009.07 117.671 1009.19 117.017L1008 117.017C1004.69 117.017 1002 114.331 1002 111.017L1002 101ZM1052.89 86.728 1065.26 99 1033 99 1033 85.007 1048.6 85.007C1050.21 84.9743 1051.76 85.5955 1052.89 86.728ZM1015.02 86.722C1016.16 85.6089 1017.7 84.9927 1019.3 85.007L1031 85.007 1031 99 1002.86 99C1002.85 99 1002.85 98.992 1002.85 98.983Z" fill="#000000" fill-rule="nonzero" fill-opacity="1"/><path d="M1020 110C1015.03 110 1011 114.029 1011 119 1011 123.971 1015.03 128 1020 128 1024.97 128 1029 123.971 1029 119 1028.99 114.032 1024.97 110.005 1020 110ZM1020 126C1016.13 126 1013 122.866 1013 119 1013 115.134 1016.13 112 1020 112 1023.87 112 1027 115.134 1027 119 1027 122.866 1023.87 126 1020 126Z" fill="#000000" fill-rule="nonzero" fill-opacity="1"/></g></g></g></g></g></svg>