<svg width="97" height="98" xmlns="http://www.w3.org/2000/svg" xmlns:xlink="http://www.w3.org/1999/xlink" xml:space="preserve" overflow="hidden"><g transform="translate(-405 -138)"><g><g><g><g><path d="M434 181 474 181 474 183 434 183Z" fill="#000000" fill-rule="nonzero" fill-opacity="1"/><path d="M434 173 453 173 453 175 434 175Z" fill="#000000" fill-rule="nonzero" fill-opacity="1"/><path d="M434 189 474 189 474 191 434 191Z" fill="#000000" fill-rule="nonzero" fill-opacity="1"/><path d="M434 197 474 197 474 199 434 199Z" fill="#000000" fill-rule="nonzero" fill-opacity="1"/><path d="M434 205 474 205 474 207 434 207Z" fill="#000000" fill-rule="nonzero" fill-opacity="1"/><path d="M434 213 474 213 474 215 434 215Z" fill="#000000" fill-rule="nonzero" fill-opacity="1"/><path d="M424 147 424 227 484 227 484 168.586 462.414 147ZM463.017 150.431 480.569 167.983C480.573 167.987 480.573 167.993 480.569 167.997 480.567 167.999 480.565 168 480.562 168L463 168 463 150.438C463 150.432 463.005 150.428 463.01 150.428 463.013 150.428 463.015 150.429 463.017 150.431ZM426 225 426 149 461 149 461 170 482 170 482 225Z" fill="#000000" fill-rule="nonzero" fill-opacity="1"/></g></g></g></g></g></svg>