<svg width="96" height="96" xmlns="http://www.w3.org/2000/svg" xmlns:xlink="http://www.w3.org/1999/xlink" xml:space="preserve" overflow="hidden"><g transform="translate(-592 -80)"><g><path d="M632.685 139.384C632.431 136.356 631.859 133.363 630.978 130.454L630.729 129.69 613.856 131.313 613.777 132.133C613.533 135.128 613.533 138.138 613.777 141.133L613.97 143.056C614.084 144.923 614.97 146.659 616.417 147.845 618.505 149.467 621.14 150.22 623.77 149.945L625.705 149.752C630.013 149.403 633.224 145.63 632.879 141.321ZM625.526 147.76 623.566 147.96C621.474 148.182 619.376 147.594 617.705 146.315 616.666 145.472 616.032 144.227 615.963 142.89L615.769 140.952C615.567 138.357 615.545 135.75 615.706 133.152L629.306 131.844C630.005 134.372 630.471 136.958 630.698 139.571L630.892 141.507C631.096 144.702 628.715 147.477 625.526 147.76Z" fill="#000000" fill-rule="nonzero" fill-opacity="1"/><path d="M623.181 84C618.199 84 613.944 86.968 611.781 91.991 608.031 102.278 608.351 115.001 612.66 126.898L612.922 127.62 630.42 126.1 630.338 125.107C629.931 120.185 631.572 116.355 633.31 112.299 635.944 106.147 638.669 99.787 633.245 89.987 630.954 85.9 627.756 84 623.181 84ZM631.471 111.51C629.823 115.357 628.122 119.328 628.288 124.276L614.288 125.494C610.38 114.242 610.146 102.323 613.642 92.73 615.481 88.453 618.96 86 623.181 86 626.703 85.8162 629.987 87.7746 631.5 90.96 636.445 99.9 634.029 105.539 631.471 111.51Z" fill="#000000" fill-rule="nonzero" fill-opacity="1"/><path d="M666.144 153.313 649.271 151.691 649.022 152.455C648.143 155.357 647.571 158.344 647.316 161.366L647.116 163.343C646.779 167.638 649.978 171.397 654.271 171.751L656.222 171.945C656.575 171.982 656.929 172 657.283 172 659.568 172.023 661.792 171.262 663.583 169.842 665.023 168.664 665.908 166.941 666.027 165.085L666.227 163.11C666.47 160.123 666.47 157.12 666.227 154.133ZM664.233 162.931 664.033 164.92C663.958 166.246 663.325 167.478 662.292 168.313 660.621 169.595 658.521 170.183 656.427 169.956L654.451 169.756C651.276 169.465 648.908 166.7 649.109 163.518L649.309 161.544C649.537 158.938 650.003 156.359 650.7 153.838L664.3 155.146C664.458 157.739 664.436 160.341 664.233 162.931Z" fill="#000000" fill-rule="nonzero" fill-opacity="1"/><path d="M668.2 113.938C666.056 108.969 661.8 106 656.819 106 652.244 106 649.046 107.9 646.752 111.991 641.324 121.799 644.058 128.191 646.701 134.364 648.432 138.41 650.068 142.232 649.662 147.105L649.579 148.099 667.079 149.62 667.341 148.898C671.651 137 671.971 124.279 668.2 113.938ZM665.717 147.5 651.717 146.282C651.879 141.382 650.185 137.42 648.544 133.582 645.977 127.582 643.552 121.916 648.503 112.97 650.425 109.532 652.991 108 656.819 108 661.04 108 664.519 110.453 666.342 114.677 669.859 124.323 669.625 136.243 665.717 147.5Z" fill="#000000" fill-rule="nonzero" fill-opacity="1"/></g></g></svg>