<svg width="97" height="97" xmlns="http://www.w3.org/2000/svg" xmlns:xlink="http://www.w3.org/1999/xlink" xml:space="preserve" overflow="hidden"><g transform="translate(-797 -157)"><g><g><g><g><path d="M822 201C822 197.686 819.314 195 816 195 812.686 195 810 197.686 810 201 810 204.314 812.686 207 816 207 819.312 206.996 821.996 204.312 822 201ZM816 205C813.791 205 812 203.209 812 201 812 198.791 813.791 197 816 197 818.209 197 820 198.791 820 201 820 203.209 818.209 205 816 205Z" fill="#000000" fill-rule="nonzero" fill-opacity="1"/><path d="M806 219 838 219 838 220C838.003 222.76 840.24 224.997 843 225L886 225 886 230 888 230 888 202C887.997 199.24 885.76 197.003 883 197L833 197C827.48 197.006 823.006 201.48 823 207L806 207 806 184C806 183.448 805.552 183 805 183 804.448 183 804 183.448 804 184L804 230 806 230ZM840 219 840 199 883 199C884.657 199 886 200.343 886 202L886 223 843 223C841.343 223 840 221.657 840 220ZM833 199 838 199 838 207 825 207C825.005 202.584 828.584 199.005 833 199ZM806 209 838 209 838 217 806 217Z" fill="#000000" fill-rule="nonzero" fill-opacity="1"/></g></g></g></g></g></svg>