<svg width="96" height="97" xmlns="http://www.w3.org/2000/svg" xmlns:xlink="http://www.w3.org/1999/xlink" xml:space="preserve" overflow="hidden"><g transform="translate(-880 -56)"><g><g><g><g><path d="M962.005 123 962.005 114 933.005 93.5 933.005 74C933.005 70.1 931.005 65 928.005 65 925.105 65 923.005 70.1 923.005 74L923.005 93.5 894.005 114 894.005 123 923.005 108.5 923.005 130.3 913.005 139 913.005 145 928.005 139 943.005 145 943.005 139 933.005 130.3 933.005 108.5ZM931.692 131.809 941.005 139.909 941.005 142.044 928.748 137.144 928.005 136.844 927.262 137.144 915.005 142.044 915.005 139.911 924.318 131.811 925.005 131.211 925.005 105.264 922.105 106.711 896.005 119.764 896.005 115.035 924.159 95.135 925.005 94.535 925.005 74C925.005 70.459 926.905 67 928.005 67 929.259 67 931.005 70.527 931.005 74L931.005 94.535 931.85 95.135 960.005 115.035 960.005 119.764 933.9 106.711 931.006 105.264 931.006 131.211Z" fill="#000000" fill-rule="nonzero" fill-opacity="1"/></g></g></g></g></g></svg>