<svg width="97" height="98" xmlns="http://www.w3.org/2000/svg" xmlns:xlink="http://www.w3.org/1999/xlink" xml:space="preserve" overflow="hidden"><g transform="translate(-789 -466)"><g><g><g><g><path d="M836.331 487 836.331 503 838.331 503 838.331 495 845.831 495 849.331 491.5 845.758 488 838.331 488 838.331 476C838.331 475.448 837.883 475 837.331 475 836.779 475 836.331 475.448 836.331 476L836.331 480 828.657 480 825.084 483.5 828.584 487ZM844.942 490 846.488 491.515 845 493 838.331 493 838.331 490ZM829.473 482 836.331 482 836.331 485 829.412 485 827.927 483.515Z" fill="#000000" fill-rule="nonzero" fill-opacity="1"/><path d="M836.331 528 838.331 528 838.331 534 836.331 534Z" fill="#000000" fill-rule="nonzero" fill-opacity="1"/><path d="M836.331 538 838.331 538 838.331 544 836.331 544Z" fill="#000000" fill-rule="nonzero" fill-opacity="1"/><path d="M836.331 548 838.331 548 838.331 554 836.331 554Z" fill="#000000" fill-rule="nonzero" fill-opacity="1"/><path d="M859.255 518.3C856.879 512.593 857.614 506.064 861.2 501.028L871.848 486 860.917 486 842.692 504.225C840.013 506.904 838.154 510.29 837.331 513.988 836.508 510.29 834.648 506.904 831.97 504.225L813.745 486 802.814 486 813.459 501.028C817.046 506.063 817.782 512.592 815.407 518.3L800.662 554 802.826 554 817.255 519.067C819.896 512.724 819.078 505.468 815.091 499.872L806.682 488 812.917 488 830.556 505.639C833.072 508.151 834.785 511.353 835.479 514.839L836.331 519.101 836.331 524 838.331 524 838.331 519.1 839.183 514.838C839.877 511.352 841.59 508.15 844.106 505.638L861.745 488 867.98 488 859.571 499.872C855.583 505.469 854.765 512.728 857.407 519.072L871.836 554 874 554Z" fill="#000000" fill-rule="nonzero" fill-opacity="1"/></g></g></g></g></g></svg>