<svg width="97" height="98" xmlns="http://www.w3.org/2000/svg" xmlns:xlink="http://www.w3.org/1999/xlink" xml:space="preserve" overflow="hidden"><g transform="translate(-749 -70)"><g><g><g><g><path d="M794.5 143.394 794.5 138.6 827.062 134.932 827.105 133.926C827.105 107.56 800.235 93.968 796.505 92.206L796.505 94.439C802.077 97.268 824.597 110.119 825.105 133.139L794.5 136.591 794.5 82 792.5 82 792.5 84.08 779.894 95.545 792.502 93.445 792.502 95.467 773.934 138.967 766.71 139.797 766.938 141.784 780.958 140.175 780.958 140.135 792.507 138.835 792.507 143.613 760.507 147.027 764.507 153.027 821.507 153.027C829.229 153.003 835.483 146.749 835.507 139.027ZM786.265 92.455 792.5 86.783 792.5 91.416ZM776.244 138.647 792.5 100.56 792.5 136.816ZM821.5 151.023 765.571 151.023 764 148.66 833.3 141.266C832.214 146.926 827.264 151.02 821.5 151.023Z" fill="#000000" fill-rule="nonzero" fill-opacity="1"/></g></g></g></g></g></svg>