<svg width="98" height="98" xmlns="http://www.w3.org/2000/svg" xmlns:xlink="http://www.w3.org/1999/xlink" xml:space="preserve" overflow="hidden"><g transform="translate(-322 -66)"><g><g><g><g><path d="M355 71C350.587 71.0137 347.014 74.5874 347 79L347 125C347.01 128.309 349.691 130.99 353 131L389 131C392.309 130.989 394.989 128.309 395 125L395 79C394.986 74.5874 391.413 71.0137 387 71ZM393 81 393 104 349 104 349 81 367 81 367 80C367 79.4477 367.448 79 368 79L374 79C374.552 79 375 79.4477 375 80L375 81ZM389 129 353 129C350.792 128.997 349.003 127.208 349 125L349 106 393 106 393 125C392.997 127.208 391.208 128.997 389 129ZM393 79 376.831 79C376.405 77.8016 375.272 77.0007 374 77L368 77C366.729 77.0016 365.596 77.8023 365.171 79L349 79C349.004 75.6881 351.688 73.0044 355 73L387 73C390.312 73.0039 392.996 75.6879 393 79Z" fill="#000000" fill-rule="nonzero" fill-opacity="1"/><path d="M356 118C353.791 118 352 119.791 352 122 352 124.209 353.791 126 356 126 358.209 126 360 124.209 360 122 360.023 119.814 358.27 118.023 356.084 118 356.056 118 356.028 118 356 118ZM356 124C354.895 124 354 123.105 354 122 354 120.895 354.895 120 356 120 357.105 120 358 120.895 358 122 358.025 123.08 357.169 123.975 356.089 124 356.059 124.001 356.03 124.001 356 124Z" fill="#000000" fill-rule="nonzero" fill-opacity="1"/><path d="M386 118C383.791 118 382 119.791 382 122 382 124.209 383.791 126 386 126 388.209 126 390 124.209 390 122 390.023 119.814 388.27 118.023 386.084 118 386.056 118 386.028 118 386 118ZM386 124C384.895 124 384 123.105 384 122 384 120.895 384.895 120 386 120 387.105 120 388 120.895 388 122 388.025 123.08 387.169 123.975 386.089 124 386.059 124.001 386.03 124.001 386 124Z" fill="#000000" fill-rule="nonzero" fill-opacity="1"/><path d="M385.709 134 387.064 137 354.936 137 356.291 134 354.1 134 342.355 160 344.549 160 346.807 155 395.193 155 397.451 160 399.645 160 387.9 134ZM394.29 153 347.71 153 350.42 147 391.58 147ZM390.677 145 351.323 145 354.033 139 387.968 139Z" fill="#000000" fill-rule="nonzero" fill-opacity="1"/></g></g></g></g></g></svg>