<svg width="97" height="96" xmlns="http://www.w3.org/2000/svg" xmlns:xlink="http://www.w3.org/1999/xlink" xml:space="preserve" overflow="hidden"><g transform="translate(-197 -48)"><g><g><g><g><path d="M220 107.063C215.582 107.063 212 110.645 212 115.063 212 119.481 215.582 123.063 220 123.063 224.418 123.063 228 119.481 228 115.063 227.995 110.647 224.416 107.068 220 107.063ZM220 121.063C216.686 121.063 214 118.377 214 115.063 214 111.749 216.686 109.063 220 109.063 223.314 109.063 226 111.749 226 115.063 225.998 118.377 223.314 121.063 220 121.067Z" fill="#000000" fill-rule="nonzero" fill-opacity="1"/><path d="M288.4 97.86 283.1 93.86C282.405 93.3425 281.91 92.6006 281.7 91.76L280.3 87.231C280.042 86.4037 279.607 85.6425 279.025 85L286.146 85C288.355 85.0002 290.146 83.2095 290.146 81.0004 290.146 80.3792 290.002 79.7666 289.724 79.211L286.5 72.764C285.658 71.0656 283.924 69.9937 282.028 70L202 70 202 115 210 115C210.004 114.328 210.076 113.658 210.214 113L204 113 204 100 244.382 100 242.382 104 260 104 260 113 229.783 113C229.922 113.658 229.995 114.328 230 115L263 115C263.004 114.328 263.076 113.658 263.214 113L262 113 262 85 266 85 266 96 282.621 96 287.174 99.438C287.691 99.818 287.999 100.419 288.005 101.061L288.005 111C288.005 112.105 287.11 113 286.005 113L282.785 113C282.924 113.658 282.996 114.328 283 115L286 115C288.206 114.993 289.993 113.206 290 111L290 101.061C289.996 99.8027 289.404 98.6186 288.4 97.86ZM260 83 260 102 245.618 102 247.618 98 204 98 204 72 282.028 72C283.165 71.996 284.206 72.6391 284.711 73.658L287.935 80.1C288.247 80.7196 288.214 81.4571 287.847 82.046 287.488 82.641 286.842 83.002 286.147 82.995ZM274.573 85C276.331 84.9916 277.887 86.1379 278.4 87.82L279.779 92.3C279.939 92.904 280.196 93.478 280.54 94L268 94 268 85Z" fill="#000000" fill-rule="nonzero" fill-opacity="1"/><path d="M273 107.063C268.582 107.063 265 110.645 265 115.063 265 119.481 268.582 123.063 273 123.063 277.418 123.063 281 119.481 281 115.063 280.995 110.647 277.416 107.068 273 107.063ZM273 121.063C269.686 121.063 267 118.377 267 115.063 267 111.749 269.686 109.063 273 109.063 276.314 109.063 279 111.749 279 115.063 278.998 118.377 276.314 121.063 273 121.067Z" fill="#000000" fill-rule="nonzero" fill-opacity="1"/><path d="M210 91 234 91 234 81 210 81ZM212 83 232 83 232 89 212 89Z" fill="#000000" fill-rule="nonzero" fill-opacity="1"/><path d="M240 91 254 91 254 81 240 81ZM242 83 252 83 252 89 242 89Z" fill="#000000" fill-rule="nonzero" fill-opacity="1"/></g></g></g></g></g></svg>